<svg id="圖層_1" data-name="圖層 1" xmlns="http://www.w3.org/2000/svg" viewBox="0 0 140 50"><defs><style>.cls-1{fill:#4c417a;}</style></defs><path class="cls-1" d="M18.87,13.07H21.5a.32.32,0,0,0,.31-.31.31.31,0,0,0-.31-.31H18.87a.32.32,0,0,0-.31.31A.33.33,0,0,0,18.87,13.07Zm1.32,23a1.37,1.37,0,1,0,1.36,1.37A1.37,1.37,0,0,0,20.19,36.11Zm-6.71-1.18H26.9V15.09H13.48Zm43-6.51a2.67,2.67,0,0,0-1.73.63,3,3,0,0,0-1,1.66,3.52,3.52,0,0,0-.12.79v1.94a3.1,3.1,0,0,0,.78,2.14,2.62,2.62,0,0,0,2,.87,2.66,2.66,0,0,0,2.27-1.13,4.94,4.94,0,0,0,.81-3,4.76,4.76,0,0,0-.77-2.79A2.65,2.65,0,0,0,56.5,28.42Zm47.05-.16a2.59,2.59,0,0,0-2.36,1.38,5.17,5.17,0,0,0-.7,2.78,5.1,5.1,0,0,0,.7,2.74,2.64,2.64,0,0,0,4.65,0,5.11,5.11,0,0,0,.72-2.76,5.17,5.17,0,0,0-.69-2.73A2.57,2.57,0,0,0,103.55,28.26Zm-34.3.16a2.67,2.67,0,0,0-1.73.63,3,3,0,0,0-1,1.66,3.52,3.52,0,0,0-.12.79v1.94a3.09,3.09,0,0,0,.77,2.14,2.62,2.62,0,0,0,2,.87,2.64,2.64,0,0,0,2.27-1.13,4.94,4.94,0,0,0,.82-3,4.76,4.76,0,0,0-.77-2.79A2.66,2.66,0,0,0,69.25,28.42ZM42.6,24.27h-.05c-.16.68-.41,1.69-.76,3l-1.34,4.2h4.32l-1.36-4.2C43.27,26.87,43,25.86,42.6,24.27Zm80.51,3.86a2.45,2.45,0,0,0-2,1.06,3.81,3.81,0,0,0-.77,2h5.38a3.56,3.56,0,0,0-.5-2A2.27,2.27,0,0,0,123.11,28.13ZM54,16.68a1,1,0,0,0,0-.34v-.82c-1.07,0-2.09.21-2.09,1.12a.79.79,0,0,0,.86.86A1.22,1.22,0,0,0,54,16.68ZM39.9,12.92c-.16-.5-.3-1.07-.42-1.55h0c-.13.48-.26,1.06-.4,1.55l-.63,2h2.12Zm85.59-.59c1.94,0,2.58,1.6,2.58,2.91a3.29,3.29,0,0,1,0,.64h-4c0,1.08.87,1.54,1.84,1.54a4.84,4.84,0,0,0,1.66-.27l.22,1a5.42,5.42,0,0,1-2.09.38,2.83,2.83,0,0,1-3.08-3A3,3,0,0,1,125.49,12.33Zm-24,.13.07.9h0a2.19,2.19,0,0,1,1.92-1c1,0,2.12.67,2.12,2.57v3.54h-1.51V15.07c0-.86-.32-1.51-1.14-1.51a1.27,1.27,0,0,0-1.18.88,1.39,1.39,0,0,0-.07.48v3.52h-1.51V14.25c0-.69,0-1.27,0-1.79Zm-15.86-.13c1.94,0,2.58,1.6,2.58,2.91a3.29,3.29,0,0,1,0,.64h-4c0,1.08.87,1.54,1.84,1.54a4.84,4.84,0,0,0,1.66-.27l.22,1a5.42,5.42,0,0,1-2.09.38,2.83,2.83,0,0,1-3.08-3A3,3,0,0,1,85.67,12.33Zm-6.18-2.6H81v8.71h-1.5Zm-12,3.67a3.16,3.16,0,0,0-1.61.44l-.29-1a4.28,4.28,0,0,1,2.16-.53,2.25,2.25,0,0,1,2.47,2.53V17a8.38,8.38,0,0,0,.09,1.43H69l-.11-.66h0a2.16,2.16,0,0,1-1.76.8,1.77,1.77,0,0,1-1.88-1.78c0-1.5,1.33-2.27,3.54-2.26v-.1C68.72,14.05,68.56,13.4,67.51,13.4ZM58.58,10a.82.82,0,1,1-.85.83A.81.81,0,0,1,58.58,10Zm.75,2.49v6H57.82v-6ZM38.56,10.17h1.93l2.69,8.27H41.54L40.8,16.1H38.18l-.71,2.34H35.91ZM28.5,37.61a2.64,2.64,0,0,1-2.64,2.64H14.52a2.65,2.65,0,0,1-2.65-2.64V12.41a2.65,2.65,0,0,1,2.65-2.64H25.86a2.64,2.64,0,0,1,2.64,2.64Zm18.23.6-1.5-4.72H40l-1.44,4.72H35.89l5.18-16.09h3.2l5.21,16.09Zm.59-19.77H45.83l-2.22-6h1.63l1,3c.17.53.3,1,.41,1.5h0c.11-.5.25-1,.41-1.5l1-3H49.6Zm3.11-1.64c0-1.5,1.33-2.27,3.54-2.26v-.1c0-.39-.16-1-1.21-1a3.16,3.16,0,0,0-1.61.44l-.29-1A4.28,4.28,0,0,1,53,12.33a2.24,2.24,0,0,1,2.46,2.53V17a8.26,8.26,0,0,0,.1,1.43H54.22l-.11-.66h0a2.17,2.17,0,0,1-1.77.8A1.77,1.77,0,0,1,50.43,16.8ZM60.53,37A4.73,4.73,0,0,1,57,38.48a3.57,3.57,0,0,1-3.32-1.66v6.1H51.06V30.42c0-1.24,0-2.51-.1-3.82h2.27l.14,1.84h0A4.61,4.61,0,0,1,60.77,28a6.43,6.43,0,0,1,1.37,4.28A6.58,6.58,0,0,1,60.53,37Zm2.68-18.51H61.7V9.73h1.51ZM73.28,37a4.71,4.71,0,0,1-3.58,1.53,3.56,3.56,0,0,1-3.31-1.66v6.1H63.81V30.42c0-1.24,0-2.51-.1-3.82H66l.15,1.84h0A4.6,4.6,0,0,1,73.52,28a6.43,6.43,0,0,1,1.37,4.28A6.58,6.58,0,0,1,73.28,37Zm1.77-18.37a2.07,2.07,0,0,1-1.89-1h0l-.07.89H71.77c0-.4,0-1.06,0-1.68v-7h1.51v3.56h0a2.16,2.16,0,0,1,1.92-1c1.46,0,2.5,1.22,2.49,3C77.76,17.51,76.4,18.58,75.05,18.58ZM88,37a6.34,6.34,0,0,1-4.38,1.41,7.76,7.76,0,0,1-4.18-1l.6-2.15a7.26,7.26,0,0,0,3.73,1,3.59,3.59,0,0,0,2.27-.65,2.17,2.17,0,0,0,.81-1.77,2.27,2.27,0,0,0-.67-1.64A6.27,6.27,0,0,0,84,31q-4.23-1.58-4.23-4.61a4.09,4.09,0,0,1,1.49-3.25,5.93,5.93,0,0,1,4-1.26,7.8,7.8,0,0,1,3.65.76l-.65,2.1A6.42,6.42,0,0,0,85.12,24a3.16,3.16,0,0,0-2.13.67,1.93,1.93,0,0,0-.65,1.46,2,2,0,0,0,.74,1.58A8.55,8.55,0,0,0,85.42,29a7.78,7.78,0,0,1,3.06,2,4.08,4.08,0,0,1,1,2.79A4.28,4.28,0,0,1,88,37Zm9.1-8.5H94.28v5.64c0,1.43.5,2.14,1.51,2.14a4.58,4.58,0,0,0,1.14-.11L97,38.16a5.86,5.86,0,0,1-2,.29,3.12,3.12,0,0,1-2.39-.93,4.58,4.58,0,0,1-.86-3.13V28.54H90.06V26.6h1.69V24.48l2.53-.76V26.6h2.85Zm-1.46-10a2.89,2.89,0,0,1-3-3.08,3,3,0,0,1,3.09-3.17,2.87,2.87,0,0,1,3,3.07A3,3,0,0,1,95.67,18.58Zm12,18.13a5.47,5.47,0,0,1-4.25,1.77,5.2,5.2,0,0,1-4.08-1.7,6.19,6.19,0,0,1-1.51-4.28,6.31,6.31,0,0,1,1.56-4.41,5.4,5.4,0,0,1,4.21-1.72,5.3,5.3,0,0,1,4.12,1.7,6.11,6.11,0,0,1,1.47,4.24A6.37,6.37,0,0,1,107.71,36.71Zm2.66-24.25h.85V11.35l1.49-.42v1.53h1.43v1.13h-1.43v2.64c0,.74.19,1.11.77,1.11a1.94,1.94,0,0,0,.59-.06l0,1.14a3.44,3.44,0,0,1-1.09.16,1.76,1.76,0,0,1-1.3-.49,2.38,2.38,0,0,1-.48-1.68V13.59h-.85ZM117,28.87a5.36,5.36,0,0,0-.82-.06,2.46,2.46,0,0,0-2.1,1,3.85,3.85,0,0,0-.64,2.29v6.09h-2.58V30.26c0-1.33,0-2.55-.07-3.66H113l.1,2.23h.07A3.91,3.91,0,0,1,114.49,27a3.08,3.08,0,0,1,1.86-.62,4.28,4.28,0,0,1,.65,0Zm.39-14v3.58h-1.51V9.73h1.51v3.55h0a2,2,0,0,1,.75-.68,2.15,2.15,0,0,1,1-.27c1,0,2.09.67,2.09,2.59v3.52h-1.51V15.08c0-.86-.32-1.52-1.15-1.52a1.26,1.26,0,0,0-1.18.84A1.38,1.38,0,0,0,117.39,14.86ZM128,33h-7.74a3.37,3.37,0,0,0,1.13,2.63,3.82,3.82,0,0,0,2.53.81,8.47,8.47,0,0,0,3.13-.55l.4,1.79a9.62,9.62,0,0,1-3.89.71,5.63,5.63,0,0,1-4.24-1.58,5.85,5.85,0,0,1-1.54-4.26,6.71,6.71,0,0,1,1.43-4.38,5,5,0,0,1,4.06-1.86,4.32,4.32,0,0,1,3.8,1.86A7,7,0,0,1,128,33ZM74.72,13.51a1.4,1.4,0,0,0-1.34,1.1,1.56,1.56,0,0,0,0,.4v1a1.34,1.34,0,0,0,0,.35,1.38,1.38,0,0,0,1.34,1.06c.94,0,1.52-.75,1.52-2C76.23,14.37,75.72,13.51,74.72,13.51Zm10.87-.15a1.48,1.48,0,0,0-1.39,1.46h2.63A1.29,1.29,0,0,0,85.59,13.36Zm10.14.06c-1.07,0-1.49,1.05-1.49,2,0,1.15.57,2,1.48,2s1.46-.84,1.46-2C97.18,14.5,96.76,13.42,95.73,13.42ZM66.67,16.64a.8.8,0,0,0,.86.86,1.22,1.22,0,0,0,1.19-.82,1,1,0,0,0,0-.34v-.82C67.69,15.51,66.67,15.73,66.67,16.64Zm58.74-3.28A1.48,1.48,0,0,0,124,14.82h2.63A1.29,1.29,0,0,0,125.41,13.36Z"/><path class="cls-1" d="M133.55,50H6.45A6.74,6.74,0,0,1-.29,43.27V6.74A6.74,6.74,0,0,1,6.45,0h127.1a6.74,6.74,0,0,1,6.74,6.74V43.27A6.74,6.74,0,0,1,133.55,50ZM6.45,1.75a5,5,0,0,0-5,5V43.27a5,5,0,0,0,5,5h127.1a5,5,0,0,0,5-5V6.74a5,5,0,0,0-5-5Z"/></svg>