<svg id="圖層_1" data-name="圖層 1" xmlns="http://www.w3.org/2000/svg" viewBox="0 0 20 20"><defs><style>.cls-1{fill:#4c417a;}.cls-2{fill:none;stroke:#4c417a;stroke-miterlimit:10;}</style></defs><g id="x3BkPn"><path class="cls-1" d="M14.88,13.26H5.12l.1-.09L5.49,13a3.05,3.05,0,0,0,1.22-2.26c0-.63.06-1.27.1-1.9a3.87,3.87,0,0,1,.41-1.6,2.8,2.8,0,0,1,2.1-1.47h0c.11-.44.31-.62.67-.6a.61.61,0,0,1,.58.58c.25.07.49.13.73.22a2.76,2.76,0,0,1,1.7,2,5.91,5.91,0,0,1,.15,1.45,8.86,8.86,0,0,0,.18,1.85,2.79,2.79,0,0,0,.92,1.53Z"/><path class="cls-1" d="M8.7,13.8h2.61A1.31,1.31,0,0,1,10,14.89,1.29,1.29,0,0,1,8.7,13.8Z"/></g><circle class="cls-2" cx="10" cy="10" r="7.5"/></svg>