<?xml version="1.0" encoding="utf-8"?>
<!-- Generator: Adobe Illustrator 23.0.1, SVG Export Plug-In . SVG Version: 6.00 Build 0)  -->
<svg version="1.1" id="圖層_1" xmlns="http://www.w3.org/2000/svg" xmlns:xlink="http://www.w3.org/1999/xlink" x="0px" y="0px"
	 viewBox="0 0 30 30" style="enable-background:new 0 0 30 30;" xml:space="preserve">
<style type="text/css">
	.st0{fill:#FFFFFF;}
</style>
<path class="st0" d="M18,18.2L17.6,18l-1.3,2.3l-6.5-3.8l3.8-6.5l6.5,3.8c-0.5,0.8-0.9,1.5-1.3,2.3l0.2,0.1l9.5,5
	c3.4-7.4,0.2-16.2-7.2-19.6S5,1.4,1.6,8.8S1.3,25,8.7,28.4c6.4,3,13.9,1,18.1-4.6l-0.8-0.5L18,18.2z M13.5,7.9
	c0.1-0.5,0.6-0.9,1.1-0.8c0.1,0,0.3,0.1,0.4,0.1l6.5,3.8c0.4,0.2,0.6,0.7,0.5,1.1c-0.1,0.5-0.4,0.8-0.9,0.9c-0.3,0-0.5,0-0.7-0.1
	c-2.2-1.2-4.3-2.5-6.5-3.7C13.6,8.9,13.4,8.4,13.5,7.9z M16.2,22.5c-0.1,0.5-0.5,0.8-1,0.8c-0.2-0.1-0.4-0.1-0.6-0.2
	c-2.1-1.2-4.3-2.5-6.4-3.7c-0.5-0.3-0.8-0.9-0.5-1.4c0.3-0.5,0.9-0.8,1.4-0.5c0.1,0,0.1,0.1,0.2,0.1l6.4,3.7
	C16.1,21.4,16.4,22,16.2,22.5z"/>
</svg>
