<svg id="圖層_1" data-name="圖層 1" xmlns="http://www.w3.org/2000/svg" viewBox="0 0 30 30"><defs><style>.cls-1{fill:#4c417a;}</style></defs><path class="cls-1" d="M18,18.19,17.59,18l-1.34,2.32L9.74,16.53,13.5,10,20,13.78c-.45.77-.88,1.53-1.33,2.31l.23.14,9.46,5a14.78,14.78,0,1,0-1.55,2.6l-.75-.48ZM13.54,7.9a1.08,1.08,0,0,1,1.13-.81,1.6,1.6,0,0,1,.43.14L21.6,11a1,1,0,0,1,.54,1.13,1,1,0,0,1-.88.85,1.23,1.23,0,0,1-.73-.14Q17.29,11,14.06,9.1A1,1,0,0,1,13.54,7.9ZM16.2,22.45a1.14,1.14,0,0,1-1,.81,3.63,3.63,0,0,1-.58-.21c-2.14-1.22-4.26-2.45-6.39-3.68a1.08,1.08,0,1,1,1.08-1.86l6.35,3.67A1.06,1.06,0,0,1,16.2,22.45Z"/></svg>