<svg id="圖層_1" data-name="圖層 1" xmlns="http://www.w3.org/2000/svg" viewBox="0 0 15 10"><defs><style>.cls-1{fill:#c8c9c9;}</style></defs><path class="cls-1" d="M8.64,8.66h0a.61.61,0,0,1-.48-.31l-2-3.62a.6.6,0,0,1,.23-.82.61.61,0,0,1,.82.23L8.72,7l4.2-5.4a.61.61,0,0,1,.85-.1.59.59,0,0,1,.1.84L9.12,8.43A.63.63,0,0,1,8.64,8.66Z"/><path class="cls-1" d="M3.64,8.66h0a.58.58,0,0,1-.48-.31l-2-3.62a.6.6,0,0,1,.23-.82.61.61,0,0,1,.82.23L3.72,7l4.2-5.4a.61.61,0,0,1,.85-.1.59.59,0,0,1,.1.84L4.12,8.43A.63.63,0,0,1,3.64,8.66Z"/></svg>