<svg id="圖層_1" data-name="圖層 1" xmlns="http://www.w3.org/2000/svg" viewBox="0 0 15 15"><defs><style>.cls-1{fill:#9d95b4;}</style></defs><g id="h9c6lN"><path class="cls-1" d="M7.5,1.07H14a1,1,0,0,1,1,1V12.89a1,1,0,0,1-1,1H1a1,1,0,0,1-1-1V2.13A1,1,0,0,1,1.06,1.07Zm6.43,10.19v-.19c0-2.8,0-5.6,0-8.4,0-.37-.15-.53-.53-.53H1.61c-.38,0-.54.16-.54.54v8.57L1.26,11l4-4.79a.75.75,0,0,1,1.25,0c.61.64,1.2,1.3,1.81,1.94a.55.55,0,0,0,.86,0c.22-.18.43-.37.65-.54a.55.55,0,0,1,.83.07L12,9.2C12.64,9.88,13.27,10.55,13.93,11.26Z"/><path class="cls-1" d="M11.24,3.21a1.61,1.61,0,1,1-1.6,1.62A1.62,1.62,0,0,1,11.24,3.21Z"/></g></svg>