<svg id="圖層_1" data-name="圖層 1" xmlns="http://www.w3.org/2000/svg" viewBox="0 0 30 30"><defs><style>.cls-1{fill:#fff;}</style></defs><path class="cls-1" d="M6.55,10.68H25.71V4.85a2.5,2.5,0,0,0-2.5-2.5h-20a2.5,2.5,0,0,0-2.5,2.5V18.18a2.5,2.5,0,0,0,2.5,2.5h.89v4.17a.84.84,0,0,0,.51.77.85.85,0,0,0,.91-.18l4.75-4.76h2.16v-5H6.55a.84.84,0,0,1-.84-.83A.85.85,0,0,1,6.55,14h5.91a4.22,4.22,0,0,1,.77-1.66H6.55a.85.85,0,0,1-.84-.84.84.84,0,0,1,.84-.83Zm0-3.33H19.88a.83.83,0,0,1,0,1.66H6.55a.83.83,0,1,1,0-1.66Z"/><path class="cls-1" d="M26.6,12.35h-10a2.5,2.5,0,0,0-2.5,2.5v6.66a2.5,2.5,0,0,0,2.5,2.5H21.2l3.09,3.09a.83.83,0,0,0,1.42-.59V24h.89a2.5,2.5,0,0,0,2.5-2.5V14.85A2.5,2.5,0,0,0,26.6,12.35Zm-2,5.34a3.31,3.31,0,0,1-1.15,1.71c-.55.48-1.15.91-1.73,1.36l-.14.07a9.2,9.2,0,0,1-2.71-2.45,1.79,1.79,0,0,1,.37-2.47,1.71,1.71,0,0,1,2.24.17l.11.12a1.79,1.79,0,0,1,1-.6A1.73,1.73,0,0,1,24.58,17.69Z"/></svg>