<svg id="圖層_1" data-name="圖層 1" xmlns="http://www.w3.org/2000/svg" viewBox="0 0 15 15"><defs><style>.cls-1{fill:#9d95b4;}</style></defs><g id="_1aZ1r6" data-name="1aZ1r6"><path class="cls-1" d="M0,7.5A7.5,7.5,0,1,1,7.49,15,7.51,7.51,0,0,1,0,7.5Zm1.07,0A6.43,6.43,0,1,0,7.46,1.07,6.44,6.44,0,0,0,1.07,7.51Z"/><path class="cls-1" d="M7.49,11.75a5.48,5.48,0,0,1-3.62-1.36.5.5,0,0,1-.19-.55.53.53,0,0,1,.39-.4.61.61,0,0,1,.54.17,4.2,4.2,0,0,0,2.08,1,4.42,4.42,0,0,0,3.7-1,.56.56,0,0,1,.53-.18.53.53,0,0,1,.4.39.51.51,0,0,1-.19.56,5.09,5.09,0,0,1-2.05,1.12A9.88,9.88,0,0,1,7.49,11.75Z"/><path class="cls-1" d="M5,5.15a1.06,1.06,0,0,1,1,1.1,1.08,1.08,0,0,1-1.1,1,1.07,1.07,0,0,1-1-1.11A1,1,0,0,1,5,5.15Z"/><path class="cls-1" d="M9,6.2a1.06,1.06,0,0,1,1.1-1,1,1,0,0,1,1,1.08,1.07,1.07,0,0,1-1.07,1.06A1.08,1.08,0,0,1,9,6.2Z"/></g></svg>