<svg id="圖層_1" data-name="圖層 1" xmlns="http://www.w3.org/2000/svg" viewBox="0 0 15 15"><defs><style>.cls-1{fill:#9d95b4;}</style></defs><g id="_2EJbYF" data-name="2EJbYF"><path class="cls-1" d="M10.42,7.51l-.56-.09-5-.84L2.08,6.12A.23.23,0,0,1,1.88,6C1.28,4.32.66,2.68.05,1A.76.76,0,0,1,.76,0a.93.93,0,0,1,.47.1L9.84,4.45l4.71,2.37a.75.75,0,0,1,.43.85.6.6,0,0,1-.34.43L4.18,13.36l-3,1.52a.75.75,0,0,1-1.07-.33.81.81,0,0,1,0-.61c.54-1.43,1.07-2.85,1.6-4.27.08-.22.16-.43.23-.64A.15.15,0,0,1,2,8.93l3-.5,5.32-.88.07,0Z"/></g></svg>