<svg id="圖層_1" data-name="圖層 1" xmlns="http://www.w3.org/2000/svg" viewBox="0 0 20 20"><defs><style>.cls-1{fill:#b3b3b4;}</style></defs><g id="KHvXMA"><path class="cls-1" d="M3.76,1.56c0,.51,0,1,0,1.51a1.47,1.47,0,0,0,0,.36A1.62,1.62,0,0,0,7,3.3C7,3.19,7,3.09,7,3,7,2.51,7,2,7,1.57h6V3.08a1.63,1.63,0,0,0,3.22.33,2,2,0,0,0,0-.34c0-.45,0-.91,0-1.36V1.57h.05c.65,0,1.3,0,1.94,0A1.9,1.9,0,0,1,20,3.39V18a1.91,1.91,0,0,1-1.89,2H1.89A1.9,1.9,0,0,1,0,18.13V3.51A1.91,1.91,0,0,1,1.4,1.63a2.24,2.24,0,0,1,.51-.07c.59,0,1.17,0,1.76,0ZM18.47,7H1.53V17.45a1,1,0,0,0,1,1H17.45a1,1,0,0,0,1-1V7Z"/><path class="cls-1" d="M6.13,1.93V3.09a.75.75,0,0,1-1.46.21.59.59,0,0,1,0-.23V.77A.75.75,0,0,1,5.27,0a.73.73,0,0,1,.82.52.73.73,0,0,1,0,.25Z"/><path class="cls-1" d="M15.37,1.92V3.05a.76.76,0,0,1-.75.78.75.75,0,0,1-.75-.77V.79a.75.75,0,1,1,1.5,0Z"/><path class="cls-1" d="M14.26,16.51v-1.7h2.29v1.7Z"/><path class="cls-1" d="M10.66,16.52V14.81H13v1.71Z"/><path class="cls-1" d="M7.05,16.51v-1.7H9.34v1.7Z"/><path class="cls-1" d="M5.74,16.52H3.45V14.81H5.74Z"/><path class="cls-1" d="M10.66,11.87H13v1.71H10.66Z"/><path class="cls-1" d="M9.35,11.88v1.69H7.06V11.88Z"/><path class="cls-1" d="M14.26,11.87h2.29v1.7H14.26Z"/><path class="cls-1" d="M3.45,13.57V11.88H5.74v1.69Z"/><path class="cls-1" d="M14.26,10.63V8.94h2.29v1.69Z"/><path class="cls-1" d="M13,10.63H10.66V8.94H13Z"/><path class="cls-1" d="M9.34,8.94v1.69H7.06V8.94Z"/><path class="cls-1" d="M3.45,10.63V8.93H5.74v1.7Z"/></g></svg>