<svg id="圖層_1" data-name="圖層 1" xmlns="http://www.w3.org/2000/svg" viewBox="0 0 80 80"><defs><style>.cls-1{fill:#fff;}</style></defs><g id="FMuSlG"><path class="cls-1" d="M39.89,43.1V53.74c-2,.2-4,.44-6,.6a71.21,71.21,0,0,1-18.14-1.13c-1.27-.22-1.53-.39-1.6-1.67a37.59,37.59,0,0,1,.1-4.86,2.56,2.56,0,0,1,1.53-2.19c1.32-.61,2.72-1,4.06-1.6a17.73,17.73,0,0,0,3.3-1.62,3.27,3.27,0,0,0,.21-5.07,6.51,6.51,0,0,1-1.37-1.56,10.48,10.48,0,0,0-1.68-2.82,2.81,2.81,0,0,1-.34-3.45,4.14,4.14,0,0,0,.3-1.11A41.21,41.21,0,0,1,21.1,22c1.28-4.23,5.75-6.44,10.43-5.24s6.24,3.49,6.88,8.55c.09.73.09,1.46.16,2.19a1.5,1.5,0,0,0,.19.62,3.17,3.17,0,0,1-.87,4.37,1.74,1.74,0,0,0-.47.84,4.18,4.18,0,0,1-1.66,2.56c-1.84,1.06-1.8,4.25.05,5.49a14,14,0,0,0,2.34,1.13A17.83,17.83,0,0,0,39.89,43.1Z"/><path class="cls-1" d="M75,55.06A15,15,0,1,1,60.06,40.2,14.94,14.94,0,0,1,75,55.06ZM58.13,60.82c-1.64-1.76-3.16-3.45-4.75-5.08a2,2,0,0,0-2.81,0,1.9,1.9,0,0,0,0,2.73q3.16,3.17,6.39,6.27a1.9,1.9,0,0,0,2.8,0c3.68-3.57,7.35-7.14,11-10.75a1.93,1.93,0,0,0-.84-3.24,2.07,2.07,0,0,0-2.15.64l-4.27,4.2Z"/><path class="cls-1" d="M74.84,42c-.91-.82-1.69-1.47-2.39-2.19a1.62,1.62,0,0,1-.26-1q0-10.94,0-21.87c0-2.74-1.51-4.29-4.27-4.29H12.69c-.45,0-.9,0-1.35,0a3.67,3.67,0,0,0-3.69,3.88q0,18.63,0,37.24a3.74,3.74,0,0,0,3.94,3.91H40.24l.53,2.58c-.26,0-.48.05-.7.05H10.27A5.14,5.14,0,0,1,5,55q0-19.8,0-39.59C5,12.06,7.1,10,10.45,10q29.38,0,58.76,0a5.47,5.47,0,0,1,5.66,5.74c-.12,8.36,0,16.72,0,25.08Z"/><path class="cls-1" d="M53.51,25.21H43.63a1.47,1.47,0,0,1-1.58-1.13,1.34,1.34,0,0,1,.71-1.63,2.2,2.2,0,0,1,1.05-.21q6.46,0,12.92,0h6a6.26,6.26,0,0,1,.75,0,1.5,1.5,0,0,1,1.44,1.49,1.48,1.48,0,0,1-1.53,1.46c-2.28,0-4.56,0-6.84,0h-3Z"/><path class="cls-1" d="M53.53,29.69h9.78c.69,0,1.29.25,1.43.91a1.93,1.93,0,0,1-.26,1.52,2.22,2.22,0,0,1-1.49.53c-2.9.05-5.79,0-8.69,0-3.54,0-7.08,0-10.62,0a1.5,1.5,0,0,1-1.5-2.2,1.67,1.67,0,0,1,1.65-.79c3.23,0,6.47,0,9.7,0Z"/><path class="cls-1" d="M46.17,37.14c.87,0,1.75,0,2.62,0a1.51,1.51,0,0,1,1.58,1.42,1.5,1.5,0,0,1-1.54,1.56c-1.79,0-3.59,0-5.39,0A1.46,1.46,0,0,1,42,38.57a1.48,1.48,0,0,1,1.49-1.43c.9,0,1.8,0,2.69,0Z"/></g></svg>