<svg id="圖層_1" data-name="圖層 1" xmlns="http://www.w3.org/2000/svg" viewBox="0 0 80 80"><defs><style>.cls-1{fill:#fff;}</style></defs><g id="vHsuFK"><path class="cls-1" d="M66.51,36.18v.62q0,9.45,0,18.91a9.38,9.38,0,0,1-.11,1.5,3.25,3.25,0,0,1-3,2.91,11.38,11.38,0,0,1-1.31.08H44.4c.15,1.52.22,3,.45,4.42a3.85,3.85,0,0,0,2,2.63c.77.46,1.54.92,2.3,1.39a1.18,1.18,0,0,1,.45.36,1,1,0,0,1,.1.68c-.06.14-.35.23-.55.29a1.55,1.55,0,0,1-.43,0H28a.94.94,0,0,1-.29,0c-.2-.08-.5-.15-.56-.3a.88.88,0,0,1,.15-.65,1.68,1.68,0,0,1,.55-.47c.72-.45,1.44-.89,2.17-1.32a4.09,4.09,0,0,0,2.16-3.34c.1-1.2.18-2.4.28-3.69H14.78a11.46,11.46,0,0,1-1.17-.06,3.4,3.4,0,0,1-3.48-3.54c0-.32,0-.65,0-1V22.27a9.46,9.46,0,0,1,.1-1.41,3.29,3.29,0,0,1,3.11-3.1,9.51,9.51,0,0,1,1.31-.1H39.27l.15,3.1H15c-1.81,0-1.88.08-1.88,1.91V49.58c0,1.51.1,1.61,1.6,1.61H50.21l11.39,0h.24c1.25,0,1.63-.39,1.63-1.64,0-3.29,0-6.58,0-9.87a1,1,0,0,1,.38-.88C64.71,38,65.56,37.13,66.51,36.18ZM40.72,55.84a2.43,2.43,0,1,0-2.41,2.44A2.47,2.47,0,0,0,40.72,55.84Z"/><path class="cls-1" d="M69.9,17.54a29.31,29.31,0,0,1-3.43,13,23.76,23.76,0,0,1-9.3,9.17,2.16,2.16,0,0,1-2.28-.06A23.76,23.76,0,0,1,43.14,23.79a35.18,35.18,0,0,1-.87-7.3,2.24,2.24,0,0,1,2.33-2.55,18.82,18.82,0,0,0,10.11-3.46,2.19,2.19,0,0,1,2.73,0A18.86,18.86,0,0,0,67.5,13.94a2.27,2.27,0,0,1,2.4,2.63C69.89,16.89,69.9,17.22,69.9,17.54Zm-13.75,7.4h.71c2.9,0,5.8,0,8.7,0,.37,0,.57-.1.64-.47.32-1.51.69-3,1-4.53.17-1,.18-2.1.26-3.23a20.81,20.81,0,0,1-11.3-3.84v12H46.22a21.59,21.59,0,0,0,9.93,12.14Z"/><path class="cls-1" d="M24.85,33.33c-.06-.32-.11-.64-.2-.95a2.18,2.18,0,0,0-3.27-1.23,2.16,2.16,0,0,0,0,3.38c.88.54,1.85.94,2.78,1.41.64.32,1.3.6,1.92,1a4.08,4.08,0,0,1,2,4.06,3.92,3.92,0,0,1-2.36,3.65c-.69.31-1.44.49-2.23.76v2H21.71c0-.49,0-1,0-1.45s-.11-.67-.6-.83A11.74,11.74,0,0,1,18.45,44a3.62,3.62,0,0,1-1.58-3.85h3c.05.27.09.52.14.77a2.09,2.09,0,0,0,1.81,1.79,4.51,4.51,0,0,0,1.16,0,1.81,1.81,0,0,0,1.74-1.46,2,2,0,0,0-.88-2.34c-.91-.5-1.87-.92-2.8-1.38a17.23,17.23,0,0,1-1.86-1,4.09,4.09,0,0,1-1.91-4A4.18,4.18,0,0,1,20,28.88a11.4,11.4,0,0,1,1.53-.5.47.47,0,0,0,.41-.54c0-.6,0-1.2,0-1.83h1.76v2.31c3.26,1.06,4.56,2.58,4.3,5Z"/><path class="cls-1" d="M41.47,44.33H31.17c-.89,0-1.43-.55-1.34-1.34a1.14,1.14,0,0,1,1-1,3.09,3.09,0,0,1,.53,0H51.58a4.64,4.64,0,0,1,.53,0,1.19,1.19,0,0,1,0,2.37,4.87,4.87,0,0,1-.54,0Z"/><path class="cls-1" d="M37.66,34.24h6.6a1.2,1.2,0,0,1,1,1.89,1.34,1.34,0,0,1-1.21.52H31.19a1.2,1.2,0,0,1-1.36-1,1.18,1.18,0,0,1,1.29-1.35C33.3,34.23,35.48,34.24,37.66,34.24Z"/></g></svg>