<svg id="圖層_1" data-name="圖層 1" xmlns="http://www.w3.org/2000/svg" viewBox="0 0 80 80"><defs><style>.cls-1{fill:#fff;}</style></defs><g id="_7lfx7v" data-name="7lfx7v"><path class="cls-1" d="M62.9,40c0,4.22,0,8.43,0,12.64a2.86,2.86,0,0,1-1.56,2.72q-9.91,5.7-19.8,11.44a2.8,2.8,0,0,1-3.07,0Q28.57,61.1,18.61,55.38a2.84,2.84,0,0,1-1.52-2.67q0-12.7,0-25.43a2.81,2.81,0,0,1,1.53-2.66q9.94-5.73,19.87-11.48a2.81,2.81,0,0,1,3.06,0q9.9,5.74,19.8,11.44a2.85,2.85,0,0,1,1.56,2.72C62.89,31.56,62.9,35.8,62.9,40Zm-3.82,0c0-3.6,0-7.2,0-10.81a1.78,1.78,0,0,0-1-1.73Q49.54,22.55,41,17.58a1.78,1.78,0,0,0-2,0q-8.52,4.95-17,9.84a1.85,1.85,0,0,0-1.05,1.79q0,10.8,0,21.62a1.75,1.75,0,0,0,1,1.71q8.53,4.91,17,9.85a1.86,1.86,0,0,0,2.07,0q8.51-4.95,17.05-9.84a1.79,1.79,0,0,0,1-1.73C59.07,47.22,59.08,43.62,59.08,40Z"/><path class="cls-1" d="M15.73,56.51c-.29-.09-.59-.17-.88-.27-2.7-.86-5.38-1.73-8.09-2.57a1.71,1.71,0,0,1-1.34-1.55c-.74-4.78-1.53-9.56-2.28-14.34A1.27,1.27,0,0,1,4.9,36.3c3,1,6.07,2,9.11,3,.51.16.55.43.55.86,0,4.11,0,8.22,0,12.32A6.67,6.67,0,0,0,15.73,56.51Z"/><path class="cls-1" d="M64.15,56.42c1.48-1.61,1.3-3.56,1.3-5.49,0-3.78,0-7.57,0-11.42l6.33-2.1c1.1-.37,2.2-.75,3.31-1.1a1.28,1.28,0,0,1,1.78,1.53c-.77,4.83-1.54,9.67-2.36,14.49a1.75,1.75,0,0,1-.88,1.16c-3.05,1-6.13,2-9.21,3C64.37,56.48,64.32,56.45,64.15,56.42Z"/><path class="cls-1" d="M47.61,66.4A39.62,39.62,0,0,1,60,60.68c2.7-.82,5.37-1.76,8-2.64.27-.09.54-.15,1-.28-.88,2-1.66,3.92-2.54,5.78a1.48,1.48,0,0,1-1,.61c-4.11.56-8.23,1.08-12.35,1.6l-4.64.59C48.21,66.38,47.93,66.38,47.61,66.4Z"/><path class="cls-1" d="M32.34,66.43,28,65.9c-4.47-.57-8.93-1.13-13.39-1.74a1.63,1.63,0,0,1-1.12-.72c-.85-1.78-1.6-3.6-2.44-5.55.41.12.69.19,1,.28,5.15,1.79,10.32,3.52,15.42,5.42a42.19,42.19,0,0,1,5,2.62Z"/><path class="cls-1" d="M32.13,48.7c.32-1.84.63-3.77,1-5.69a1.62,1.62,0,0,0-.54-1.73c-1.36-1.23-2.63-2.55-4-3.81a1.42,1.42,0,0,1-.53-1.55A1.34,1.34,0,0,1,29.39,35c1.91-.26,3.82-.58,5.74-.82a1.28,1.28,0,0,0,1.09-.84c.8-1.7,1.67-3.37,2.48-5.06a1.39,1.39,0,0,1,1.31-1,1.41,1.41,0,0,1,1.3,1c.84,1.74,1.71,3.46,2.55,5.2a1,1,0,0,0,.88.65c2,.26,4,.54,6,.9a1.7,1.7,0,0,1,1.14.88,1.72,1.72,0,0,1-.42,1.39c-1.33,1.4-2.73,2.74-4.14,4.06a1.32,1.32,0,0,0-.45,1.38c.35,1.88.64,3.76,1,5.63a1.32,1.32,0,0,1-2.09,1.46C44,49,42.31,48.1,40.61,47.17a1.14,1.14,0,0,0-1.24,0c-1.74,1-3.5,1.88-5.26,2.78A1.29,1.29,0,0,1,32.13,48.7Z"/></g></svg>