<svg id="圖層_1" data-name="圖層 1" xmlns="http://www.w3.org/2000/svg" viewBox="0 0 30 30"><defs><style>.cls-1{fill:#fff;}</style></defs><path class="cls-1" d="M27.56,16.32V30H15.9V17.91l2.43,3.36c.18-.36.36-.66.49-1a.54.54,0,0,1,.57-.37c.54,0,1.09-.05,1.7-.09l-2.54-3.5Z"/><path class="cls-1" d="M8.36,20.11H10a.36.36,0,0,1,.38.23c.2.43.43.86.67,1.33l3-4.19V30H2.45V16.31h8.67Z"/><path class="cls-1" d="M15,6.07a13.92,13.92,0,0,1,2.42-3.29A9.34,9.34,0,0,1,20.74.37,5,5,0,0,1,24.21.26a3.42,3.42,0,0,1,2.31,3.19,4.92,4.92,0,0,1-4.24,5.3,31.32,31.32,0,0,1-5.39.39q-3.48,0-7-.14a13.71,13.71,0,0,1-2.78-.4,4.85,4.85,0,0,1-3.51-6A3.49,3.49,0,0,1,7,0a5.62,5.62,0,0,1,3.53,1,14.39,14.39,0,0,1,4.31,4.74C14.88,5.86,14.94,6,15,6.07ZM13.24,7.18a.66.66,0,0,1,0-.11c-.05-.09-.09-.18-.14-.26A12.41,12.41,0,0,0,9.42,2.72,3.73,3.73,0,0,0,7.33,2,1.58,1.58,0,0,0,5.49,3.61,2.86,2.86,0,0,0,7.8,6.7a11,11,0,0,0,1.61.24C10.68,7,12,7.1,13.24,7.18Zm3.5-.06c.37,0,.7,0,1,0,1.47-.12,2.95-.18,4.4-.42a2.8,2.8,0,0,0,2.33-3.26,1.46,1.46,0,0,0-1.36-1.37,3.36,3.36,0,0,0-2.42.59,12.67,12.67,0,0,0-1.29,1A11.83,11.83,0,0,0,16.74,7.12Z"/><path class="cls-1" d="M14.09,15.1H.87v-5H14.09Z"/><path class="cls-1" d="M29.13,15.1H15.91v-5H29.13Z"/></svg>