<svg id="圖層_1" data-name="圖層 1" xmlns="http://www.w3.org/2000/svg" viewBox="0 0 150 50"><defs><style>.cls-1{fill:#4c417a;}</style></defs><path class="cls-1" d="M142.24,50H7.76A7.4,7.4,0,0,1,.37,42.61V7.39A7.4,7.4,0,0,1,7.76,0H142.24a7.4,7.4,0,0,1,7.39,7.39V42.61A7.4,7.4,0,0,1,142.24,50ZM7.76,1.75A5.65,5.65,0,0,0,2.12,7.39V42.61a5.65,5.65,0,0,0,5.64,5.64H142.24a5.65,5.65,0,0,0,5.64-5.64V7.39a5.65,5.65,0,0,0-5.64-5.64Z"/><path class="cls-1" d="M50,14.59H49a7.34,7.34,0,0,0-.28-1.15H47.27a5.84,5.84,0,0,0-.3,1.15H46a20.33,20.33,0,0,1,.73-2,15.32,15.32,0,0,0,.72-2h1.17a16.88,16.88,0,0,0,.66,2A18.9,18.9,0,0,1,50,14.59Zm-1.43-1.75c-.35-1.06-.53-1.64-.53-1.72h0a17.27,17.27,0,0,1-.55,1.72Z"/><path class="cls-1" d="M54,14.59H53.2a7.56,7.56,0,0,0-.85-1.34,7,7,0,0,1-1-1.75h0a11.31,11.31,0,0,1,.08,1.23c0,.51,0,1.13,0,1.86h-.76c0-.64,0-1.34,0-2.11s0-1.39,0-1.92h.92a5.87,5.87,0,0,0,.77,1.31,7.66,7.66,0,0,1,.93,1.65h.05a11.64,11.64,0,0,1-.08-1.24c0-.56,0-1.13,0-1.72H54c0,.51,0,1.15,0,1.92S53.94,14,54,14.59Z"/><path class="cls-1" d="M58.46,12.44A2.25,2.25,0,0,1,57.89,14a2,2,0,0,1-1.58.66c-.3,0-.73,0-1.26,0,0-.62,0-1.32,0-2.11s0-1.39,0-1.92h1.28A2.08,2.08,0,0,1,58,11.1,1.92,1.92,0,0,1,58.46,12.44Zm-.85.13a1.49,1.49,0,0,0-.35-1,1.31,1.31,0,0,0-1.06-.41l-.36,0q0,.62,0,1.29t0,1.47a1.81,1.81,0,0,0,.4,0,1.15,1.15,0,0,0,1-.41A1.62,1.62,0,0,0,57.61,12.57Z"/><path class="cls-1" d="M62.6,14.59h-.92a6,6,0,0,0-.55-1.35.74.74,0,0,0-.62-.26h-.35c0,.53,0,1.06,0,1.6h-.86c0-.62,0-1.32,0-2.11s0-1.39,0-1.92H60.8c1,0,1.42.33,1.42,1a1.09,1.09,0,0,1-.81,1.08v.05a1,1,0,0,1,.55.48A11,11,0,0,1,62.6,14.59Zm-1.17-2.85c0-.41-.26-.61-.79-.61a2.64,2.64,0,0,0-.51,0c0,.32,0,.74,0,1.25h.29C61.11,12.43,61.43,12.2,61.43,11.74Z"/><path class="cls-1" d="M67,12.5a2.22,2.22,0,0,1-.59,1.58,1.93,1.93,0,0,1-2.81.05,2,2,0,0,1-.55-1.46,2.24,2.24,0,0,1,.59-1.58,1.88,1.88,0,0,1,1.44-.62,1.84,1.84,0,0,1,1.37.57A2,2,0,0,1,67,12.5Zm-.86.09a1.61,1.61,0,0,0-.33-1.05,1,1,0,0,0-.82-.4,1,1,0,0,0-.77.41,1.61,1.61,0,0,0-.31,1,1.61,1.61,0,0,0,.33,1,1,1,0,0,0,.82.4.94.94,0,0,0,.77-.4A1.64,1.64,0,0,0,66.18,12.59Z"/><path class="cls-1" d="M68.79,14.59h-.88c0-.64,0-1.34,0-2.11s0-1.39,0-1.92h.88c0,.52,0,1.16,0,1.92S68.76,14,68.79,14.59Z"/><path class="cls-1" d="M73.28,12.44A2.29,2.29,0,0,1,72.72,14a2,2,0,0,1-1.58.66c-.31,0-.73,0-1.27,0,0-.62,0-1.32,0-2.11s0-1.39,0-1.92h1.28a2.11,2.11,0,0,1,1.63.56A2,2,0,0,1,73.28,12.44Zm-.85.13a1.48,1.48,0,0,0-.34-1A1.33,1.33,0,0,0,71,11.16l-.37,0q0,.62,0,1.29t0,1.47a1.9,1.9,0,0,0,.41,0,1.14,1.14,0,0,0,1-.41A1.57,1.57,0,0,0,72.43,12.57Z"/><path class="cls-1" d="M79.24,14.59h-1A6.73,6.73,0,0,0,78,13.44H76.53a6.29,6.29,0,0,0-.29,1.15h-.93q0-.12.72-2a15.32,15.32,0,0,0,.72-2h1.18a15.68,15.68,0,0,0,.65,2A17.81,17.81,0,0,1,79.24,14.59Zm-1.43-1.75a15.81,15.81,0,0,1-.53-1.72h0c0,.08-.19.65-.55,1.72Z"/><path class="cls-1" d="M82.85,11.62a1.19,1.19,0,0,1-.55,1.09,2.42,2.42,0,0,1-1.35.35h-.21c0,.39,0,.9,0,1.53h-.87c0-.59,0-1.3,0-2.11s0-1.38,0-1.92h1.54a1.74,1.74,0,0,1,1,.27A.89.89,0,0,1,82.85,11.62Zm-.8.17c0-.44-.29-.67-.88-.67a2.49,2.49,0,0,0-.46.05c0,.39,0,.83,0,1.33h.18C81.67,12.5,82.05,12.26,82.05,11.79Z"/><path class="cls-1" d="M86.57,11.62A1.21,1.21,0,0,1,86,12.71a2.42,2.42,0,0,1-1.35.35h-.21q0,.58,0,1.53h-.87c0-.59,0-1.3,0-2.11s0-1.38,0-1.92h1.55a1.74,1.74,0,0,1,1,.27A.91.91,0,0,1,86.57,11.62Zm-.8.17c0-.44-.3-.67-.88-.67a2.69,2.69,0,0,0-.47.05c0,.39,0,.83,0,1.33h.18C85.39,12.5,85.77,12.26,85.77,11.79Z"/><path class="cls-1" d="M92.64,12.5a2.22,2.22,0,0,1-.58,1.58,1.89,1.89,0,0,1-1.44.63,1.83,1.83,0,0,1-1.37-.58,2,2,0,0,1-.55-1.46,2.23,2.23,0,0,1,.58-1.58,1.91,1.91,0,0,1,1.44-.62,1.83,1.83,0,0,1,1.37.57A2,2,0,0,1,92.64,12.5Zm-.85.09a1.56,1.56,0,0,0-.34-1.05,1,1,0,0,0-.81-.4,1,1,0,0,0-.77.41,1.61,1.61,0,0,0-.32,1,1.56,1.56,0,0,0,.34,1,1,1,0,0,0,.81.4.94.94,0,0,0,.77-.4A1.64,1.64,0,0,0,91.79,12.59Z"/><path class="cls-1" d="M96.84,14.59h-.76a8.05,8.05,0,0,0-.86-1.34,7.2,7.2,0,0,1-1-1.75h0a11.13,11.13,0,0,1,.07,1.23c0,.51,0,1.13,0,1.86h-.76c0-.64,0-1.34,0-2.11s0-1.39,0-1.92h.92a5.59,5.59,0,0,0,.76,1.31,7.87,7.87,0,0,1,.94,1.65h0a11.44,11.44,0,0,1-.07-1.24c0-.56,0-1.13,0-1.72h.77c0,.51,0,1.15,0,1.92S96.81,14,96.84,14.59Z"/><path class="cls-1" d="M60.29,27.52a6.44,6.44,0,0,1-1.78,4.78,6.93,6.93,0,0,1-5.27,2.13,7.39,7.39,0,0,1-7.44-7.49,7.38,7.38,0,0,1,7.44-7.49,7.45,7.45,0,0,1,2.95.6,5.88,5.88,0,0,1,2.24,1.6l-1.26,1.26a4.86,4.86,0,0,0-3.93-1.7,5.54,5.54,0,0,0-5.56,5.73,5.54,5.54,0,0,0,5.56,5.72,5.43,5.43,0,0,0,4-1.6,4.52,4.52,0,0,0,1.2-2.9H53.24V26.44h6.95A5.79,5.79,0,0,1,60.29,27.52Z"/><path class="cls-1" d="M62.47,25.47a5.13,5.13,0,0,1,7.25,0,5.16,5.16,0,0,1,1.42,3.73,5.18,5.18,0,0,1-1.42,3.73,5.13,5.13,0,0,1-7.25,0,5.22,5.22,0,0,1-1.42-3.73A5.2,5.2,0,0,1,62.47,25.47Zm1.38,6.3a3.09,3.09,0,0,0,4.5,0,3.53,3.53,0,0,0,1-2.57,3.51,3.51,0,0,0-1-2.57,3.09,3.09,0,0,0-4.5,0,3.47,3.47,0,0,0-1,2.57A3.49,3.49,0,0,0,63.85,31.77Z"/><path class="cls-1" d="M73.19,25.47a5.12,5.12,0,0,1,7.24,0,5.16,5.16,0,0,1,1.42,3.73,5.18,5.18,0,0,1-1.42,3.73,5.12,5.12,0,0,1-7.24,0,5.19,5.19,0,0,1-1.43-3.73A5.17,5.17,0,0,1,73.19,25.47Zm1.37,6.3a3.09,3.09,0,0,0,4.5,0,3.49,3.49,0,0,0,1-2.57,3.47,3.47,0,0,0-1-2.57,3.09,3.09,0,0,0-4.5,0,3.47,3.47,0,0,0-1,2.57A3.49,3.49,0,0,0,74.56,31.77Z"/><path class="cls-1" d="M87.3,38.75a4.43,4.43,0,0,1-2.84-.87,5.1,5.1,0,0,1-1.58-2l1.68-.7a2.73,2.73,0,0,0,1,1.34,2.85,2.85,0,0,0,1.71.54,3.18,3.18,0,0,0,2.39-.91,3.44,3.44,0,0,0,.87-2.48v-.94h-.08a3.72,3.72,0,0,1-1.36,1.2,4.09,4.09,0,0,1-2,.49,4.32,4.32,0,0,1-3.28-1.51,5.67,5.67,0,0,1,0-7.44A4.28,4.28,0,0,1,87.14,24a4.08,4.08,0,0,1,2,.48,3.84,3.84,0,0,1,1.36,1.21h.08V24.29h1.77V33.6a4.88,4.88,0,0,1-1.47,3.84A5.15,5.15,0,0,1,87.3,38.75Zm.14-6a2.92,2.92,0,0,0,2.21-1,3.58,3.58,0,0,0,.91-2.58,3.58,3.58,0,0,0-.91-2.58,3,3,0,0,0-4.41,0,3.54,3.54,0,0,0-.92,2.57,3.55,3.55,0,0,0,.92,2.57A2.92,2.92,0,0,0,87.44,32.74Z"/><path class="cls-1" d="M95.91,34.1H94.07V19.77h1.84Z"/><path class="cls-1" d="M102,34.43a4.73,4.73,0,0,1-3.61-1.49A5.22,5.22,0,0,1,97,29.2a5.38,5.38,0,0,1,1.35-3.68A4.38,4.38,0,0,1,101.79,24a4.54,4.54,0,0,1,3.5,1.43,5.38,5.38,0,0,1,1.31,3.8l0,.34H98.83a3.29,3.29,0,0,0,1,2.34,3,3,0,0,0,2.13.86,2.65,2.65,0,0,0,2.69-1.68l1.64.68a4.4,4.4,0,0,1-1.58,1.91A4.59,4.59,0,0,1,102,34.43ZM104.64,28a2.61,2.61,0,0,0-.77-1.6,2.76,2.76,0,0,0-2.12-.76,2.62,2.62,0,0,0-1.77.64A3.26,3.26,0,0,0,99,28Z"/><path class="cls-1" d="M113.85,34.1H112V19.77h4.89A4.52,4.52,0,0,1,120,21a4.17,4.17,0,0,1,0,6.11,4.57,4.57,0,0,1-3.15,1.21h-3Zm0-7.56h3.08a2.39,2.39,0,0,0,1.86-.78,2.48,2.48,0,0,0,0-3.45,2.39,2.39,0,0,0-1.86-.78h-3.08Z"/><path class="cls-1" d="M124.42,34.1h-1.84V19.77h1.84Z"/><path class="cls-1" d="M129.16,34.43a3.88,3.88,0,0,1-2.61-.91,3,3,0,0,1-1-2.38,2.93,2.93,0,0,1,1.24-2.51,5,5,0,0,1,3.06-.91,5.26,5.26,0,0,1,2.66.6V28a2.16,2.16,0,0,0-.74-1.73,2.62,2.62,0,0,0-1.82-.65,2.76,2.76,0,0,0-1.45.38,2,2,0,0,0-.89,1l-1.68-.72a3.8,3.8,0,0,1,1.34-1.64,4.3,4.3,0,0,1,2.64-.75A4.52,4.52,0,0,1,133,25.08a3.93,3.93,0,0,1,1.24,3.1V34.1h-1.77V32.74h-.08A3.6,3.6,0,0,1,129.16,34.43Zm.3-1.69a3,3,0,0,0,2.07-.85,2.65,2.65,0,0,0,.93-2,3.61,3.61,0,0,0-2.34-.64,3,3,0,0,0-2,.58,1.76,1.76,0,0,0-.68,1.36,1.32,1.32,0,0,0,.62,1.14A2.47,2.47,0,0,0,129.46,32.74Z"/><path class="cls-1" d="M138.23,38.43h-1.9l2.28-5-4-9.19h2l2.92,7.05h0l2.85-7h2Z"/><path class="cls-1" d="M11.44,26.69V13a2.05,2.05,0,0,1,.51-1.5c.15-.17.26-.21.45,0q4.62,4.72,9.26,9.42l6,6.09c.19.19.21.3,0,.5Q20.31,34.77,13,42.12a.5.5,0,0,1-.79.05,1.87,1.87,0,0,1-.73-1.59V32.45c0-1.92,0-3.84,0-5.76Z"/><path class="cls-1" d="M13.2,10.94a1.67,1.67,0,0,1,.9.24L32.91,21.72c.29.16.28.25.06.47q-2.1,2.07-4.18,4.16c-.15.15-.25.24-.45,0l-15-15.25Z"/><path class="cls-1" d="M14.61,42q6.83-6.9,13.64-13.8c.29-.29.42-.25.67,0q1.72,1.8,3.5,3.57c.21.2.22.29-.06.44L14.84,41.83Z"/><path class="cls-1" d="M40.61,26.82A1.45,1.45,0,0,1,40,28a8.79,8.79,0,0,1-.87.53L33.8,31.43a.39.39,0,0,1-.57-.08c-1.26-1.29-2.52-2.58-3.8-3.86-.18-.18-.19-.29,0-.47,1.49-1.46,3-2.93,4.43-4.41a.36.36,0,0,1,.51-.07c1.75,1,3.5,2,5.25,2.94A1.64,1.64,0,0,1,40.61,26.82Z"/></svg>