<svg id="圖層_1" data-name="圖層 1" xmlns="http://www.w3.org/2000/svg" viewBox="0 0 30 30"><defs><style>.cls-1{fill:#fff;}</style></defs><g id="DjOyie"><path class="cls-1" d="M30,14l-1.55,1.8L15,3.22,1.57,15.84,0,14l.38-.38Q7.49,6.92,14.59.24c.31-.29.49-.34.82,0Q22.7,7.09,30,13.93Z"/><path class="cls-1" d="M18.35,30V24.35c0-1.05-.12-1.17-1.08-1.17h-4.7c-.7,0-.89.2-.89.94V30l-.45,0h-6c-.64,0-.81-.17-.81-.84q0-6.78,0-13.57A.94.94,0,0,1,4.71,15Q9.77,10.24,14.84,5.5A.94.94,0,0,1,15,5.36l.38.33q4.91,4.59,9.8,9.18a1.07,1.07,0,0,1,.38.86c0,4.42,0,8.83,0,13.25,0,.88-.13,1-.95,1H18.35Z"/><path class="cls-1" d="M4.49,7.89V2H8.23c0,.75,0,1.48,0,2.22a.45.45,0,0,1-.14.27Z"/></g></svg>