<svg id="圖層_1" data-name="圖層 1" xmlns="http://www.w3.org/2000/svg" viewBox="0 0 25 25"><defs><style>.cls-1{fill:#3e3a39;}</style></defs><g id="td2L7F"><path class="cls-1" d="M12.5,19.33c-.35-.39-.69-.74-1-1.11a25,25,0,0,1-3.94-5.83,9.49,9.49,0,0,1-1-3.87,5.94,5.94,0,1,1,11.88.13,9.85,9.85,0,0,1-1,3.83,24.25,24.25,0,0,1-3.76,5.59C13.28,18.48,12.9,18.88,12.5,19.33ZM16.15,8.38A3.65,3.65,0,1,0,12.5,12,3.64,3.64,0,0,0,16.15,8.38Z"/><path class="cls-1" d="M10.15,18A11,11,0,0,0,9,18.22a8.81,8.81,0,0,0-1.43.55c-.57.31-.55.73,0,1.06a5.07,5.07,0,0,0,1.78.56A18.58,18.58,0,0,0,16,20.31a13.35,13.35,0,0,0,1.31-.43,1.19,1.19,0,0,0,.15-.09c.46-.31.47-.68,0-1a5.09,5.09,0,0,0-1.73-.64L14.89,18c.18-.21.33-.41.49-.6a.21.21,0,0,1,.16,0,9,9,0,0,1,3.11,1,3.6,3.6,0,0,1,.84.72,1,1,0,0,1,0,1.38,3,3,0,0,1-1.18.92,10.58,10.58,0,0,1-3.26.92,18.37,18.37,0,0,1-5.92-.13,8,8,0,0,1-2.93-1,3.25,3.25,0,0,1-.74-.64,1.08,1.08,0,0,1,0-1.42A3.62,3.62,0,0,1,7,18a11.4,11.4,0,0,1,2.43-.68.27.27,0,0,1,.3.13C9.87,17.65,10,17.81,10.15,18Z"/></g></svg>