<?xml version="1.0" encoding="utf-8"?>
<!-- Generator: Adobe Illustrator 23.0.1, SVG Export Plug-In . SVG Version: 6.00 Build 0)  -->
<svg version="1.1" id="圖層_1" xmlns="http://www.w3.org/2000/svg" xmlns:xlink="http://www.w3.org/1999/xlink" x="0px" y="0px"
	 viewBox="0 0 25 25" style="enable-background:new 0 0 25 25;" xml:space="preserve">
<style type="text/css">
	.st0{fill:#FFFFFF;}
</style>
<g id="ZVBavK">
	<path class="st0" d="M19,8.3c-0.1,0.9-0.6,1.8-1.4,2.3c-0.6,0.4-1.2,0.5-1.9,0.4c-1.4-0.1-2.5-1.2-2.7-2.6
		c-0.5,1.9-1.7,2.9-3.7,2.6c-1.3-0.3-2.2-1.3-2.3-2.6L7,8.8c-0.3,1.3-1.4,2.3-2.8,2.4c-1.4,0.1-2.7-0.8-3.1-2.2C1,8.6,1,8.2,1.3,7.8
		c1.1-1.8,2.3-3.5,3.4-5.3C4.7,2.4,4.9,2.3,5,2.3h15c0.2,0,0.3,0.1,0.4,0.2c1.4,1.8,2.8,3.7,4.2,5.5c0.1,0.2,0.2,0.4,0.2,0.6
		c-0.2,1.3-1.3,2.4-2.6,2.4c-1.3,0.1-2.6-0.7-3-2C19.1,8.8,19.1,8.6,19,8.3z"/>
	<path class="st0" d="M13.1,11.4c1.7,1.5,4.2,1.5,5.9,0c1.1,1,2.6,1.4,4,1v9.9H3v-10c1.5,0.4,3.1,0.1,4.2-1
		C8.8,12.8,11.4,12.8,13.1,11.4L13.1,11.4z M19.3,21v-6.2h-3.7V21H19.3z M5.5,18.5h6.2v-3.7H5.5V18.5z"/>
</g>
</svg>
