<svg id="圖層_1" data-name="圖層 1" xmlns="http://www.w3.org/2000/svg" viewBox="0 0 25 25"><defs><style>.cls-1{fill:#3e3a39;}</style></defs><g id="ejaD4e"><path class="cls-1" d="M9.63,12.6l2.88,4.74,3-4.61a7.44,7.44,0,0,1,3.75,3.54,9.57,9.57,0,0,1,1,4.46.52.52,0,0,1-.26.37,20.24,20.24,0,0,1-9.56,1.28A22.08,22.08,0,0,1,5,21.11a.58.58,0,0,1-.32-.39,9.05,9.05,0,0,1,2.05-6.13A7.11,7.11,0,0,1,9.63,12.6Z"/><path class="cls-1" d="M12.44,11.3A4.43,4.43,0,0,1,8,6.84a4.4,4.4,0,1,1,8.8.13A4.4,4.4,0,0,1,12.44,11.3Z"/></g></svg>