<svg id="圖層_1" data-name="圖層 1" xmlns="http://www.w3.org/2000/svg" viewBox="0 0 25 25"><defs><style>.cls-1{fill:#3e3a39;}</style></defs><g id="_3VK84R" data-name="3VK84R"><path class="cls-1" d="M16.62,22.5H2.8s0,0,0-.06a26.42,26.42,0,0,1,.16-3.89A4.77,4.77,0,0,1,6.4,14.8a.59.59,0,0,1,.45,0,5.66,5.66,0,0,0,5.59,0,.74.74,0,0,1,.63-.06,5.13,5.13,0,0,1,3.56,4.76c0,.89,0,1.78,0,2.68C16.64,22.33,16.62,22.4,16.62,22.5Z"/><path class="cls-1" d="M9.71,5.3A4.39,4.39,0,1,1,5.29,9.68,4.43,4.43,0,0,1,9.71,5.3Z"/><path class="cls-1" d="M11.85,4.14A4.29,4.29,0,0,1,17,2.89a4.4,4.4,0,0,1,2.4,5.25c-.55,1.83-2.49,3.32-4,3.09A6,6,0,0,0,11.85,4.14Z"/><path class="cls-1" d="M14.13,13.59c.17-.24.32-.46.48-.65a.48.48,0,0,1,.3-.13,5.92,5.92,0,0,0,3.18-.76.6.6,0,0,1,.42,0A5.22,5.22,0,0,1,22.23,17c0,.92,0,1.84,0,2.78h-4A6.81,6.81,0,0,0,14.13,13.59Z"/></g></svg>