<svg id="圖層_1" data-name="圖層 1" xmlns="http://www.w3.org/2000/svg" viewBox="0 0 25 25"><defs><style>.cls-1{fill:#3e3a39;}</style></defs><g id="ZVBavK"><path class="cls-1" d="M19.05,8.29a3,3,0,0,1-1.37,2.31,2.93,2.93,0,0,1-1.89.45,3,3,0,0,1-2.67-2.62c-.51,1.91-1.67,2.89-3.67,2.56A3,3,0,0,1,7.11,8.35L7,8.75a3,3,0,0,1-2.8,2.37A3.09,3.09,0,0,1,1.12,8.94a1.24,1.24,0,0,1,.15-1.1C2.41,6.08,3.53,4.29,4.64,2.51a.43.43,0,0,1,.41-.23h15a.45.45,0,0,1,.41.2C21.86,4.32,23.24,6.16,24.64,8a.77.77,0,0,1,.16.65,2.78,2.78,0,0,1-2.63,2.42,2.84,2.84,0,0,1-3-2C19.15,8.81,19.12,8.59,19.05,8.29Z"/><path class="cls-1" d="M13.11,11.35a4.35,4.35,0,0,0,5.91,0,4.28,4.28,0,0,0,4,1v9.91H3v-10a4.29,4.29,0,0,0,4.18-1,4.32,4.32,0,0,0,5.89,0ZM19.28,21V14.81H15.57V21ZM5.54,18.52h6.23V14.81H5.54Z"/></g></svg>