<svg id="圖層_1" data-name="圖層 1" xmlns="http://www.w3.org/2000/svg" viewBox="0 0 30 30"><defs><style>.cls-1{fill:#fff;}</style></defs><g id="arfo8L"><path class="cls-1" d="M30,6.09V23.91c0,.17-.06.34-.08.51a6.47,6.47,0,0,1-5,5.4c-.32.08-.65.12-1,.18H6.09l-.51-.08a6.47,6.47,0,0,1-5.4-5c-.08-.32-.12-.65-.18-1V6.09c0-.17.06-.34.08-.51a6.47,6.47,0,0,1,5-5.4c.32-.08.65-.12,1-.18H23.91l.51.08a6.47,6.47,0,0,1,5.4,5C29.9,5.44,29.94,5.77,30,6.09ZM17.22,19l.17.3A3.53,3.53,0,0,0,21.5,21.1a4,4,0,0,0,2.58-2.54,9.66,9.66,0,0,0,.49-5.4A9.75,9.75,0,0,0,5.37,16.5a9.3,9.3,0,0,0,3.41,6A9.54,9.54,0,0,0,18.5,24.1c.37-.13.45-.3.34-.67L18.39,22c-.17-.51-.3-.58-.82-.39A7.14,7.14,0,0,1,8,13.7a7.12,7.12,0,1,1,13.65,3.85,2.78,2.78,0,0,1-.62.87.68.68,0,0,1-.76.14,1,1,0,0,1-.67-1.06V10.88c0-.4-.13-.52-.53-.53H17.6a.84.84,0,0,0-.45.08c-.11.07-.16.24-.24.36a4.81,4.81,0,0,0-6.16,1.38A4.76,4.76,0,0,0,10.9,18,4.82,4.82,0,0,0,17.22,19Z"/><path class="cls-1" d="M12.29,15a2.34,2.34,0,0,1,2.26-2.37,2.37,2.37,0,0,1,2.38,2.19,2.34,2.34,0,0,1-2.24,2.46A2.31,2.31,0,0,1,12.29,15Z"/></g></svg>