<svg id="圖層_1" data-name="圖層 1" xmlns="http://www.w3.org/2000/svg" viewBox="0 0 40 40"><defs><style>.cls-1{fill:#fff;}</style></defs><path class="cls-1" d="M16.61,33.58a1.87,1.87,0,0,0,.73-.4,2.77,2.77,0,0,0,.81-1.37,3.42,3.42,0,0,0,.12-.78,3.15,3.15,0,0,0-.09-.81,3.74,3.74,0,0,0-.74-1.41,5.87,5.87,0,0,0-1.1-1A7.8,7.8,0,0,0,15.06,27L14.87,27l-.19-.07-.35-.11-.27-.07a36.82,36.82,0,0,1,1.35-3.86l.78-2a22.7,22.7,0,0,1,3.38,3.85.1.1,0,0,0,.14,0,.11.11,0,0,0,0-.13A17.79,17.79,0,0,0,16.8,20l-.21-.21c.25-.68.5-1.36.72-2l.2-.65.18-.66c.08-.33.2-.79.31-1.35,0-.19.29-1.35.38-2.21a6.6,6.6,0,0,0-.31-3.82,4.39,4.39,0,0,0-2.69-2.32,4.07,4.07,0,0,0-2,.05,4.4,4.4,0,0,0-1.76,1,3.8,3.8,0,0,0-.93,1.31,2.87,2.87,0,0,0-.13.39,4,4,0,0,0-.17,1.14,4.57,4.57,0,0,0,.24,1.47,6.41,6.41,0,0,0,.62,1.29A12.88,12.88,0,0,0,13,15.51a.1.1,0,0,0,.14,0,.09.09,0,0,0,0-.12,19,19,0,0,1-1.3-2.31,5.28,5.28,0,0,1-.37-1.19,3,3,0,0,1,0-1.18A2.6,2.6,0,0,1,13,8.81a2.24,2.24,0,0,1,1.4,0A2.8,2.8,0,0,1,16,10.19l.12.22a2.21,2.21,0,0,1,.12.27,2.93,2.93,0,0,1,.18.52,4.81,4.81,0,0,1,.14,1.11,14.34,14.34,0,0,1-.27,2.47c-.15.85-.34,1.7-.54,2.56-.11.44-.21.88-.33,1.32-.2-.18-.4-.36-.61-.53a15.57,15.57,0,0,0-2.41-1.48,15.27,15.27,0,0,0-2.68-1,9.87,9.87,0,0,0-2.94-.27,6.81,6.81,0,0,0-1.53.26,6.54,6.54,0,0,0-1.46.64,5.93,5.93,0,0,0-2.22,2.33A4.72,4.72,0,0,0,1.13,22a5.93,5.93,0,0,0,1.65,2.76,9.53,9.53,0,0,0,2.45,1.72A10.86,10.86,0,0,0,6.56,27c.45.16.91.31,1.37.43a15.79,15.79,0,0,0,2.79.47c.83.07,1.62.12,2.38.22,0,.33-.07.67-.1,1a8.06,8.06,0,0,0,0,1.39,3.89,3.89,0,0,0,.41,1.4,3.35,3.35,0,0,0,1,1.1,3,3,0,0,0,1.39.59A2,2,0,0,0,16.61,33.58ZM8.45,25.64a9.68,9.68,0,0,1-4.18-2.37,4.08,4.08,0,0,1-1-1.8,2.64,2.64,0,0,1,.21-1.87,4,4,0,0,1,1.4-1.53,4.68,4.68,0,0,1,1-.48,5.51,5.51,0,0,1,1.1-.25,7.72,7.72,0,0,1,2.39.09,13.8,13.8,0,0,1,2.42.67A15.53,15.53,0,0,1,14,19.22c.36.23.7.47,1,.72l-.68,2.56c-.35,1.34-.71,2.68-1,4-.84-.18-1.67-.26-2.45-.37A15.25,15.25,0,0,1,8.45,25.64Zm6.33,6.86a2.59,2.59,0,0,1-.82-.86,3.15,3.15,0,0,1-.35-1.15,4.49,4.49,0,0,1,0-.64l0-.65c0-.32.07-.64.12-.95l.21,0,.29.07.14,0,.12,0a6.77,6.77,0,0,1,1.1.5,3.28,3.28,0,0,1,1.53,1.6,2.1,2.1,0,0,1-.35,2,1.13,1.13,0,0,1-.91.35A2.42,2.42,0,0,1,14.78,32.5Z"/><path class="cls-1" d="M23.52,33.64a3,3,0,0,0,1.4-.59,3.35,3.35,0,0,0,1-1.1,3.89,3.89,0,0,0,.41-1.4,9.21,9.21,0,0,0,0-1.39c0-.34-.06-.68-.11-1,.76-.1,1.56-.15,2.39-.22a16,16,0,0,0,2.79-.47c.46-.12.92-.27,1.37-.43a11.56,11.56,0,0,0,1.33-.57,9.7,9.7,0,0,0,2.45-1.72A5.93,5.93,0,0,0,38.18,22a4.72,4.72,0,0,0-.39-3.34,5.89,5.89,0,0,0-2.23-2.33,6.16,6.16,0,0,0-1.46-.64,6.63,6.63,0,0,0-1.52-.26,9.84,9.84,0,0,0-2.94.27,15.27,15.27,0,0,0-2.68,1,15.11,15.11,0,0,0-2.41,1.48l-.62.53c-.11-.44-.22-.88-.32-1.32-.2-.86-.39-1.71-.54-2.56a14.34,14.34,0,0,1-.27-2.47,4.81,4.81,0,0,1,.14-1.11,2.93,2.93,0,0,1,.18-.52,2.21,2.21,0,0,1,.12-.27l.12-.22A2.77,2.77,0,0,1,25,8.83a2.24,2.24,0,0,1,1.4,0,2.6,2.6,0,0,1,1.53,1.9,3.24,3.24,0,0,1,0,1.18,4.84,4.84,0,0,1-.38,1.19,17.7,17.7,0,0,1-1.29,2.31.09.09,0,0,0,0,.12.11.11,0,0,0,.15,0,12.35,12.35,0,0,0,1.75-2.1,5.94,5.94,0,0,0,.63-1.29A4.31,4.31,0,0,0,29,10.65a4,4,0,0,0-.16-1.14,2.87,2.87,0,0,0-.13-.39,3.8,3.8,0,0,0-.93-1.31,4.47,4.47,0,0,0-1.76-1,4.07,4.07,0,0,0-2-.05,4.39,4.39,0,0,0-2.69,2.32,6.52,6.52,0,0,0-.31,3.82c.09.86.33,2,.37,2.21.12.56.24,1,.32,1.35l.18.66.2.65c.22.69.46,1.37.72,2-.07.07-.14.13-.21.21a17.53,17.53,0,0,0-2.94,4.58.11.11,0,0,0,0,.13.1.1,0,0,0,.14,0,22.64,22.64,0,0,1,3.37-3.85c.26.67.53,1.33.79,2a36.75,36.75,0,0,1,1.34,3.86l-.27.07-.34.11-.19.07-.19.08a7.8,7.8,0,0,0-1.28.75,5.58,5.58,0,0,0-1.1,1,3.6,3.6,0,0,0-.74,1.41A3.15,3.15,0,0,0,21,31a3.42,3.42,0,0,0,.12.78,2.83,2.83,0,0,0,.8,1.37,1.91,1.91,0,0,0,.74.4A1.93,1.93,0,0,0,23.52,33.64Zm4.87-7.47c-.79.11-1.61.19-2.46.37-.27-1.36-.63-2.7-1-4l-.69-2.56q.51-.37,1-.72a15.42,15.42,0,0,1,2.27-1.12A14.15,14.15,0,0,1,30,17.43a7.72,7.72,0,0,1,2.39-.09,5.68,5.68,0,0,1,1.1.25,4.68,4.68,0,0,1,1,.48,4,4,0,0,1,1.4,1.53,2.7,2.7,0,0,1,.21,1.87A4.08,4.08,0,0,1,35,23.27a9.74,9.74,0,0,1-4.18,2.37A15.25,15.25,0,0,1,28.39,26.17ZM23.45,32.9a1.12,1.12,0,0,1-.91-.35,2.13,2.13,0,0,1-.36-2,3.35,3.35,0,0,1,1.54-1.6,7.08,7.08,0,0,1,1.09-.5l.13,0,.13,0,.3-.07.21,0c.05.31.09.63.12.95l0,.65a4.49,4.49,0,0,1,0,.64,3,3,0,0,1-.36,1.15,2.5,2.5,0,0,1-.82.86A2.34,2.34,0,0,1,23.45,32.9Z"/></svg>