<?xml version="1.0" encoding="utf-8"?>
<!-- Generator: Adobe Illustrator 24.1.3, SVG Export Plug-In . SVG Version: 6.00 Build 0)  -->
<svg version="1.1" id="圖層_1" xmlns="http://www.w3.org/2000/svg" xmlns:xlink="http://www.w3.org/1999/xlink" x="0px" y="0px"
	 viewBox="0 0 265 70" style="enable-background:new 0 0 265 70;" xml:space="preserve">
<style type="text/css">
	.st0{fill:#FFFFFF;}
</style>
<g>
	<g>
		<path class="st0" d="M39.8,64.8c0.6-0.2,1.2-0.5,1.6-0.9c0.9-0.8,1.5-1.9,1.8-3c0.2-0.6,0.2-1.1,0.3-1.7c0-0.6-0.1-1.2-0.2-1.8
			c-0.3-1.2-0.9-2.2-1.6-3.1c-0.7-0.9-1.6-1.6-2.5-2.3c-0.9-0.6-1.8-1.2-2.8-1.7c-0.1-0.1-0.3-0.1-0.4-0.2c-0.2-0.1-0.3-0.1-0.4-0.2
			c-0.3-0.1-0.5-0.2-0.8-0.3c-0.2-0.1-0.4-0.1-0.6-0.2c0.8-2.9,1.9-5.7,3-8.6c0.6-1.5,1.2-2.9,1.7-4.4c2.8,2.5,5.3,5.4,7.5,8.6
			c0.1,0.1,0.2,0.1,0.3,0.1c0.1-0.1,0.1-0.2,0.1-0.3c-1.6-3.7-3.8-7.1-6.5-10.2c-0.1-0.2-0.3-0.3-0.5-0.5c0.6-1.5,1.1-3,1.6-4.5
			l0.4-1.5l0.4-1.5c0.2-0.7,0.4-1.7,0.7-3c0.1-0.4,0.6-3,0.8-4.9c0.3-3,0.6-5.7-0.7-8.5c-0.4-0.8-2.2-4.2-6-5.2
			c-2.1-0.5-3.9,0-4.5,0.1c-0.7,0.2-2.4,0.8-3.9,2.2c-0.4,0.4-1.4,1.4-2.1,2.9c-0.1,0.4-0.3,0.7-0.3,0.9c-0.2,0.8-0.4,1.7-0.4,2.5
			c0,1.1,0.2,2.2,0.5,3.3c0.4,1,0.8,2,1.4,2.9c1.1,1.8,2.5,3.2,3.9,4.7c0.1,0.1,0.2,0.1,0.3,0c0.1-0.1,0.1-0.2,0-0.3
			c-1-1.7-2.1-3.4-2.9-5.1c-0.4-0.9-0.7-1.8-0.8-2.7c-0.1-0.7-0.3-1.6-0.1-2.6c0-0.1,0.7-3.3,3.4-4.2c1.4-0.5,2.6-0.1,3.1,0
			c2.3,0.7,3.3,2.6,3.6,3l0.3,0.5c0.1,0.2,0.2,0.4,0.3,0.6c0.2,0.4,0.3,0.8,0.4,1.1c0.2,0.8,0.3,1.6,0.3,2.5c0,1.8-0.3,3.6-0.6,5.5
			c-0.3,1.9-0.8,3.8-1.2,5.7c-0.2,1-0.5,2-0.7,2.9c-0.5-0.4-0.9-0.8-1.4-1.2c-1.7-1.3-3.4-2.4-5.3-3.3c-1.9-0.9-3.9-1.6-6-2.2
			c-2.1-0.5-4.3-0.8-6.5-0.6c-1.1,0.1-2.3,0.3-3.4,0.6c-1.1,0.3-2.2,0.8-3.2,1.4c-2,1.2-3.8,3-4.9,5.2c-1.2,2.2-1.5,5-0.9,7.4
			c0.6,2.5,2,4.5,3.7,6.1c1.6,1.6,3.5,2.8,5.4,3.8c1,0.5,2,0.9,3,1.3c1,0.4,2,0.7,3,0.9c2,0.5,4.2,0.9,6.2,1
			c1.8,0.2,3.6,0.3,5.3,0.5c-0.1,0.7-0.2,1.5-0.2,2.2c0,1-0.1,2,0,3.1c0.1,1.1,0.4,2.1,0.9,3.1c0.5,1,1.3,1.8,2.2,2.5
			c0.9,0.6,1.9,1.2,3.1,1.3C38.5,65,39.2,65,39.8,64.8z M21.6,47.2c-3.6-1.1-6.9-2.8-9.3-5.2c-1.1-1.2-2-2.6-2.3-4
			c-0.4-1.4-0.2-2.8,0.5-4.1c0.6-1.3,1.8-2.5,3.1-3.4c0.7-0.4,1.4-0.8,2.2-1.1c0.8-0.3,1.6-0.5,2.5-0.6c1.7-0.2,3.5-0.1,5.3,0.2
			c1.8,0.3,3.6,0.8,5.4,1.5c1.7,0.7,3.4,1.5,5.1,2.5c0.8,0.5,1.6,1,2.3,1.6l-1.5,5.7c-0.8,3-1.6,5.9-2.2,9c-1.9-0.4-3.7-0.6-5.5-0.8
			C25.2,48.1,23.4,47.7,21.6,47.2z M35.7,62.4c-0.8-0.5-1.4-1.1-1.8-1.9c-0.4-0.8-0.7-1.7-0.8-2.6C33,57.5,33,57,33,56.5l0.1-1.4
			c0.1-0.7,0.2-1.4,0.3-2.1c0.2,0,0.3,0,0.5,0.1c0.2,0,0.4,0.1,0.7,0.2c0.1,0,0.2,0.1,0.3,0.1c0.1,0,0.2,0.1,0.3,0.1
			c0.8,0.3,1.7,0.7,2.4,1.1c1.5,0.9,2.9,2.1,3.4,3.5c0.5,1.4,0.2,3.4-0.8,4.5c-0.5,0.5-1.2,0.8-2,0.8C37.3,63.3,36.5,62.9,35.7,62.4
			z"/>
		<path class="st0" d="M55.1,65c1.2-0.1,2.2-0.7,3.1-1.3c0.9-0.6,1.6-1.5,2.2-2.5c0.5-1,0.8-2,0.9-3.1c0.1-1.1,0-2.1,0-3.1
			c-0.1-0.8-0.1-1.5-0.2-2.2c1.7-0.2,3.4-0.3,5.3-0.5c2-0.2,4.2-0.5,6.2-1c1-0.3,2-0.6,3-0.9c1-0.4,2-0.8,3-1.3c2-1,3.8-2.2,5.4-3.8
			c1.6-1.6,3-3.6,3.7-6.1c0.7-2.4,0.3-5.2-0.9-7.4c-1.2-2.2-2.9-4-4.9-5.2c-1-0.6-2.1-1.1-3.2-1.4c-1.1-0.3-2.3-0.5-3.4-0.6
			c-2.3-0.2-4.5,0.1-6.5,0.6c-2.1,0.5-4,1.3-6,2.2c-1.9,0.9-3.7,2-5.3,3.3c-0.5,0.4-0.9,0.8-1.4,1.2c-0.2-1-0.5-2-0.7-2.9
			c-0.5-1.9-0.9-3.8-1.2-5.7c-0.3-1.9-0.6-3.7-0.6-5.5c0-0.9,0.1-1.7,0.3-2.5c0.1-0.4,0.2-0.7,0.4-1.1c0.1-0.2,0.2-0.4,0.3-0.6
			l0.3-0.5c0.2-0.5,1.3-2.3,3.6-3c0.5-0.1,1.7-0.5,3.1,0c2.7,0.9,3.4,4.1,3.4,4.2c0.2,1,0.1,1.9-0.1,2.6c-0.2,0.9-0.5,1.8-0.8,2.7
			c-0.7,1.8-1.8,3.4-2.9,5.1c-0.1,0.1,0,0.2,0,0.3c0.1,0.1,0.2,0.1,0.3,0c1.4-1.4,2.8-2.9,3.9-4.7c0.6-0.9,1-1.8,1.4-2.9
			c0.4-1,0.5-2.2,0.5-3.3c0-0.8-0.1-1.7-0.4-2.5c0-0.2-0.1-0.5-0.3-0.9c-0.6-1.5-1.7-2.6-2.1-2.9c-1.5-1.4-3.2-2-3.9-2.2
			C60,5.2,58.1,4.7,56,5.2c-3.8,1-5.6,4.4-6,5.2c-1.3,2.7-1,5.4-0.7,8.5c0.2,1.9,0.8,4.5,0.8,4.9c0.3,1.2,0.5,2.3,0.7,3l0.4,1.5
			l0.4,1.5c0.5,1.5,1,3,1.6,4.5c-0.1,0.2-0.3,0.3-0.5,0.5c-2.8,3.1-4.9,6.5-6.5,10.2c0,0.1,0,0.2,0.1,0.3c0.1,0.1,0.2,0,0.3-0.1
			c2.2-3.1,4.7-6.1,7.5-8.6c0.6,1.5,1.2,2.9,1.7,4.4c1.1,2.8,2.2,5.7,3,8.6c-0.2,0.1-0.4,0.1-0.6,0.2c-0.3,0.1-0.5,0.2-0.8,0.3
			c-0.1,0-0.3,0.1-0.4,0.2c-0.2,0.1-0.3,0.1-0.4,0.2c-1,0.5-1.9,1-2.8,1.7c-0.9,0.6-1.7,1.4-2.5,2.3c-0.7,0.9-1.3,1.9-1.6,3.1
			c-0.1,0.6-0.2,1.2-0.2,1.8c0,0.6,0.1,1.2,0.3,1.7c0.3,1.1,0.8,2.2,1.8,3c0.5,0.4,1,0.7,1.6,0.9C53.9,65,54.6,65,55.1,65z
			 M65.9,48.3c-1.7,0.3-3.6,0.4-5.5,0.8c-0.6-3-1.4-6-2.2-9l-1.5-5.7c0.8-0.6,1.5-1.1,2.3-1.6c1.6-1,3.3-1.8,5.1-2.5
			c1.7-0.7,3.6-1.2,5.4-1.5c1.8-0.3,3.6-0.4,5.3-0.2c0.8,0.1,1.7,0.3,2.5,0.6c0.8,0.3,1.5,0.6,2.2,1.1c1.3,0.9,2.5,2.1,3.1,3.4
			c0.7,1.3,0.8,2.7,0.5,4.1c-0.3,1.4-1.2,2.8-2.3,4c-2.3,2.5-5.7,4.1-9.3,5.2C69.7,47.7,67.9,48.1,65.9,48.3z M55,63.3
			c-0.8,0-1.5-0.2-2-0.8c-1-1.1-1.3-3.1-0.8-4.5c0.5-1.5,1.9-2.7,3.4-3.5c0.8-0.4,1.6-0.8,2.4-1.1c0.1,0,0.2-0.1,0.3-0.1
			c0.1,0,0.2-0.1,0.3-0.1c0.2-0.1,0.4-0.1,0.7-0.2c0.2,0,0.3-0.1,0.5-0.1c0.1,0.7,0.2,1.4,0.3,2.1l0.1,1.4c0,0.5,0,0.9-0.1,1.4
			c-0.1,0.9-0.4,1.8-0.8,2.6c-0.4,0.8-1.1,1.4-1.8,1.9C56.6,62.9,55.8,63.3,55,63.3z"/>
	</g>
	<g>
		<g>
			<g>
				<path class="st0" d="M109.9,12.1c0.2-0.4,0.3-0.8,0.4-1.1h9.5c0.3,0,0.6,0,0.9,0h13.4c-0.1,0.5-0.3,1.2-0.7,2
					c-0.5,0.9-1,1.6-1.4,2c0.3,0,0.6,0,0.9,0c0.5-0.4,1.2-1,1.9-2c0.1-0.2,0.7-1.1,1.1-2.3c0.4-1.2,0.5-2.4,0.5-3.3
					c-0.8,0-1.6,0-2.4,0c0.1,0.5,0.3,1.2,0.2,2.1h-11.7c0.5-0.7,0.7-1.3,0.9-1.9c0.2-0.6,0.4-1.4,0.4-2.4c-0.8,0-1.6,0-2.4,0
					c0.2,0.7,0.3,1.6,0.1,2.6c-0.1,0.5-0.2,1.1-0.5,1.7h-10.6c0.1-0.9,0-1.6-0.1-2.1c-0.3,0-0.6,0-0.9,0c0,0.6,0,1.5-0.4,2.6
					c-0.7,1.9-2.2,2.9-2.7,3.2c0.5,0.6,1,1.3,1.4,1.9C108.4,14.4,109.3,13.5,109.9,12.1z"/>
				<path class="st0" d="M117.5,22.7c0.1-0.2,0.7-1.1,1.1-2.3c0.3-1.1,0.5-2.1,0.5-2.9h2v-1.6h-5.6c0.3-0.5,0.4-0.9,0.6-1.4
					c0.2-0.6,0.4-1.4,0.4-2.4c-0.8,0-1.6,0-2.4,0c0.2,0.7,0.3,1.6,0.1,2.6c-0.1,0.4-0.1,0.8-0.3,1.2h-5.4v1.6h4.4h1.2h2.7
					c0.1,0.7,0.2,1.7,0.1,2.8c0,0.2-0.2,1.2-0.8,2.4c-0.1,0.2-0.2,0.3-0.3,0.5H114c-0.2-0.6-0.4-1.2-0.8-1.8c-1.1-2-2.7-2.9-3.5-3.3
					c-0.2,0.2-0.4,0.5-0.6,0.7c0.5,0.3,1.2,0.9,1.8,1.8c0.6,0.9,0.8,1.8,0.9,2.6h-4.7v1.6h7.4c0.3,0,0.6,0,0.9,0h6.5v-1.6h-5
					C117.3,23,117.4,22.8,117.5,22.7z"/>
				<path class="st0" d="M126.7,40.6c-0.1-0.2-0.2-0.4-0.2-0.6h8.5v-1.6h-8.8c0-0.3-0.1-0.7,0-1.1c0-0.5,0-1,0-1.6h0v-0.1h8.8v-1.6
					h-8.8v-2.8h8.8v-1.6h-8.8v-2.5h7.5v0.4h2.4v-0.4v-1.6v-3.5v-1.6V20h-2.4v0.5h-7.5v-3.1h9.8v-1.6h-9.8V12h-2.4v11.1h2.4v-1h7.5
					v3.5h-7.5v-1h-2.4v8.3c0,0.9,0,1.9,0,2.8c0,0.5,0,1,0,1.6c0,1.2,0.2,3.5,1.7,5.7c2.3,3.2,6.7,4.7,11.2,3.8c0-0.3,0-0.6,0-0.9
					c-0.2,0-0.6,0.1-1,0.1C132.3,46,128.2,44.1,126.7,40.6z"/>
				<path class="st0" d="M118.2,27.6h-6.4v-1.2h-2.4v9.3c0,0.4,0,0.9,0,1.3c0,0.4,0,0.8,0,1.2c0,0.6-0.1,1.2-0.3,1.9
					c-0.6,2.7-2.1,4.6-3.1,5.7c0,0.3,0,0.6,0,0.9c0.8-0.4,2.7-1.4,4.1-3.5c1.4-2.1,1.6-4.1,1.6-5h6.4c0,0.6-0.1,1.2-0.3,1.9
					c-0.6,2.7-2.1,4.6-3.1,5.7c0,0.3,0,0.6,0,0.9c0.8-0.4,2.7-1.4,4.1-3.5c1.4-2.1,1.6-4.2,1.6-5c0-0.4,0-0.8,0-1.2l0,0V26.4h-2.4
					V27.6z M118.2,36.7h-6.4v-2.9h6.4v2C118.2,36,118.2,36.3,118.2,36.7z M118.2,29.2v2.9h-6.4v-2.9H118.2z"/>
			</g>
			<g>
				<path class="st0" d="M156.4,10.8c4.4-0.1,8-0.2,12.4-1.6c1.9-0.6,3.4-1.3,4.3-1.8c0-0.8,0-1.6,0-2.4c-2.8,1.4-5.3,2.4-7.3,3
					c-4.2,1.3-7.6,1.6-8.8,1.7c-2.7,0.2-5.1,0.1-6.8,0c0,0.3,0,0.6,0,0.9C152.7,10.9,154.9,10.9,156.4,10.8z"/>
				<path class="st0" d="M150.8,18.5c0.2-0.4,0.3-0.8,0.4-1.1h5.2h2.2h4.2h2.2h1.7h1.1h7.2c-0.1,0.5-0.3,1.2-0.7,2
					c-0.5,0.9-1,1.6-1.4,2c0.3,0,0.6,0,0.9,0c0.5-0.4,1.2-1,1.9-2c0.1-0.2,0.7-1.1,1.1-2.3c0.4-1.2,0.5-2.4,0.5-3.3
					c-0.8,0-1.6,0-2.4,0c0.1,0.5,0.3,1.2,0.2,2.1H169c0.2-0.3,0.7-1.1,1.1-2.3c0.4-1.2,0.5-2.4,0.5-3.3c-0.8,0-1.6,0-2.4,0
					c0.2,0.7,0.4,1.9,0.2,3.2c0,0.2-0.2,1.2-0.8,2.4h-3.2c-0.1-0.3-0.2-0.5-0.4-0.8c-1.1-2-2.7-2.9-3.5-3.3
					c-0.2,0.2-0.4,0.5-0.6,0.7c0.5,0.3,1.2,0.9,1.8,1.8c0.3,0.5,0.6,1,0.7,1.5H158c-0.1-0.3-0.2-0.5-0.4-0.8c-1.1-2-2.7-2.9-3.5-3.3
					c-0.2,0.2-0.4,0.5-0.6,0.7c0.5,0.3,1.2,0.9,1.8,1.8c0.3,0.5,0.6,1,0.7,1.5h-4.6c0.1-0.9,0-1.6-0.1-2.1c-0.3,0-0.6,0-0.9,0
					c0,0.6,0,1.5-0.4,2.6c-0.7,1.9-2.2,2.9-2.7,3.2c0.5,0.6,1,1.3,1.4,1.9C149.3,20.8,150.2,19.9,150.8,18.5z"/>
				<path class="st0" d="M149.4,25.5c0.5,0.6,1,1.3,1.4,1.9c0.6-0.5,1.4-1.5,2.1-2.9c0.9-2.1,0.7-4,0.6-4.8c-0.3,0-0.6,0-0.9,0
					c0,0.6,0,1.5-0.4,2.6C151.4,24.2,149.9,25.2,149.4,25.5z"/>
				<path class="st0" d="M174.1,26.4c-0.1-0.8-0.3-2-1.1-3.4c-1.1-2-2.7-2.9-3.5-3.3c-0.2,0.2-0.4,0.5-0.6,0.7
					c0.3,0.2,0.6,0.4,1,0.8c-0.7,0.6-1.8,1.2-3.1,1.8c-1.1-2-2.7-2.9-3.5-3.3c-0.2,0.2-0.4,0.5-0.6,0.7c0.5,0.3,1.2,0.9,1.8,1.8
					c0.3,0.4,0.5,0.9,0.6,1.3c-0.2,0.1-0.5,0.1-0.8,0.2c-0.7,0.1-1.3,0.2-1.9,0.2c-0.4,0-0.8,0-1.2,0c-0.4,0-0.9,0-1.3,0h-1.9v-4.3
					h-2.4v7.6h2.4V26h0c1.1,0,2.1,0,3.2,0c0.4,0,0.8,0,1.2,0c0.6,0,1.7-0.1,3-0.5c0,0.4,0,0.7,0,0.9c0.8,0,1.6,0,2.4,0
					c0-0.4-0.1-1.1-0.4-1.8c0,0,0.1,0,0.1,0c1.5-0.8,2.4-1.9,3-2.6c0.1,0.1,0.2,0.2,0.2,0.3c1.1,1.7,1,3.5,0.9,4.1
					C172.5,26.4,173.3,26.4,174.1,26.4z"/>
				<path class="st0" d="M169.9,32.9C170,32,170,31.4,170,31v-1.3h-2.4v1.2H158c0.1-0.5,0.1-0.9,0.1-1.3c0-0.4,0-0.7,0-1.1
					c-0.8,0-1.6,0-2.4,0c0,0.3,0,0.6,0,0.9c0,0.6,0,1.1-0.1,1.6c-0.8,5.3-6.3,8.3-8.1,9.2c0,0.3,0,0.6,0,0.9c2.1-0.9,3.7-2,4.9-2.8
					c1.7-1.2,2.9-2.1,3.9-3.5c1,2.1,2.7,3.9,4.7,5.3c-4.8,3.1-10.9,5-13.8,5.8c0,0.3,0,0.6,0,0.9c3.1-0.5,5.6-1.2,7.2-1.8
					c1.7-0.6,5.1-1.8,8.4-3.8c3.2,2,6.7,3.2,8.4,3.8c1.6,0.6,4,1.3,7.2,1.8c0-0.3,0-0.6,0-0.9c-2.9-0.8-9.1-2.7-13.8-5.8
					C167.1,38.4,169.3,35.9,169.9,32.9z M158.1,32.5h9.4c-0.5,2.6-2.3,4.8-4.7,6.6C160.4,37.3,158.6,35.1,158.1,32.5z"/>
			</g>
			<path class="st0" d="M259.9,45.6c-2-2.1-4-4.6-6-7.8c-6.4-10.5-7.6-21.4-7.7-27.3c0-0.5,0-1,0-1.4l0,0V8.7V5h-3.2h0v3.7v0.4v1.4
				c-0.2,6-1.3,16.9-7.7,27.3c-1.9,3.2-4,5.7-6,7.8c0,0.5,0,0.9,0,1.4c2.9-2.7,6.3-6.6,9.5-11.9c3.6-6.1,5.2-11.5,5.8-13.9
				c0.6,2.3,2.3,7.8,5.8,13.9c3.1,5.3,6.6,9.2,9.5,11.9C260,46.5,260,46.1,259.9,45.6z"/>
			<path class="st0" d="M212.8,19.1c0-0.2,0-0.3,0-0.5h6.1v-1.6h-16.7c0.2-0.6,0.4-1.1,0.5-1.7c0.7-2.6,0.9-4.9,1-6.6
				c0-0.4,0-0.8,0-1.2l0,0V5.1h-1.3h-1.1h-1.1v2.7c0,0.3,0,0.6,0,1c-0.1,2.1-0.3,5-1.1,8.3H189v1.6h9.8c-0.8,2.8-2,5.7-3.8,8.7
				c-1.3,2.1-2.7,3.9-4.1,5.3c0,0.3,0,0.6,0,0.9l0,0v0l0,0c0.6-0.5,1.2-1.1,1.8-1.7c1.5,0.3,3.4,0.7,5.5,1.6
				c0.9,0.4,3.2,1.3,5.8,3.2c-0.9,1.2-2,2.5-3.2,3.6c-4.1,3.7-8.7,5.2-11.9,5.8c0,0.3,0,0.7,0,1c2.1-0.3,4.9-1,7.9-2.5
				c4.2-2,7.1-4.7,8.8-6.7c0.2,0.2,0.5,0.4,0.7,0.6c0.6,0.5,2.4,2.1,4.3,4.6c1.1,1.5,2,2.8,2.6,3.9c0.3,0,0.6,0,0.9,0
				c-0.1-0.3-0.2-0.6-0.3-0.8c-1.5-3.3-3.3-5.8-4.6-7.3c-0.5-0.5-1.3-1.5-2.5-2.6c1.1-1.6,3.5-5.3,4.8-10.2
				C212.7,22.5,212.8,19.1,212.8,19.1z M205.3,34.9c-1.9-1.5-4.4-3.1-7.4-4.3c-1.1-0.5-2.1-0.8-2.9-1c1.1-1.2,2.2-2.7,3.2-4.2
				c0.5-0.7,2.1-3.3,3.4-6.7h8c0,0.2,0,0.3,0,0.5C209.6,20.7,209.4,28.1,205.3,34.9z"/>
		</g>
		<g>
			<path class="st0" d="M144.8,64.9v-7.7h3.4c0.7,0,1.2,0.1,1.6,0.2c0.4,0.1,0.6,0.4,0.9,0.7s0.3,0.7,0.3,1.2c0,0.5-0.2,1-0.5,1.4
				c-0.4,0.4-0.9,0.6-1.6,0.7c0.3,0.1,0.5,0.3,0.6,0.4c0.3,0.3,0.6,0.6,0.8,1l1.3,2.1h-1.3l-1-1.6c-0.3-0.5-0.5-0.8-0.7-1.1
				c-0.2-0.2-0.4-0.4-0.5-0.5c-0.2-0.1-0.3-0.2-0.5-0.2c-0.1,0-0.3,0-0.6,0h-1.2v3.4H144.8z M145.8,60.5h2.2c0.5,0,0.8,0,1.1-0.1
				c0.3-0.1,0.5-0.2,0.6-0.5c0.1-0.2,0.2-0.4,0.2-0.7c0-0.4-0.1-0.7-0.4-0.9c-0.3-0.2-0.7-0.4-1.3-0.4h-2.4V60.5z"/>
			<path class="st0" d="M154.8,64.9v-7.7h5.6V58h-4.6v2.4h4.3v0.9h-4.3v2.6h4.7v0.9H154.8z"/>
			<path class="st0" d="M163.8,62.4l1-0.1c0,0.4,0.2,0.7,0.3,1c0.2,0.2,0.4,0.5,0.8,0.6c0.4,0.2,0.7,0.2,1.2,0.2
				c0.4,0,0.7-0.1,1-0.2c0.3-0.1,0.5-0.3,0.7-0.5c0.1-0.2,0.2-0.4,0.2-0.7c0-0.2-0.1-0.5-0.2-0.6c-0.1-0.2-0.4-0.3-0.7-0.5
				c-0.2-0.1-0.7-0.2-1.4-0.4c-0.7-0.2-1.2-0.3-1.5-0.5c-0.4-0.2-0.6-0.4-0.8-0.7c-0.2-0.3-0.3-0.6-0.3-1c0-0.4,0.1-0.8,0.3-1.1
				c0.2-0.3,0.5-0.6,1-0.8c0.4-0.2,0.9-0.3,1.4-0.3c0.6,0,1.1,0.1,1.5,0.3c0.4,0.2,0.8,0.5,1,0.8c0.2,0.4,0.4,0.8,0.4,1.2l-1,0.1
				c-0.1-0.5-0.2-0.9-0.5-1.1c-0.3-0.2-0.8-0.4-1.3-0.4c-0.6,0-1.1,0.1-1.4,0.3c-0.3,0.2-0.4,0.5-0.4,0.8c0,0.3,0.1,0.5,0.3,0.7
				c0.2,0.2,0.7,0.4,1.5,0.6c0.8,0.2,1.4,0.4,1.7,0.5c0.5,0.2,0.8,0.5,1,0.8c0.2,0.3,0.3,0.7,0.3,1.1c0,0.4-0.1,0.8-0.4,1.2
				c-0.2,0.4-0.6,0.6-1,0.8c-0.4,0.2-0.9,0.3-1.5,0.3c-0.7,0-1.3-0.1-1.8-0.3s-0.8-0.5-1.1-0.9C163.9,63.4,163.8,62.9,163.8,62.4z"
				/>
			<path class="st0" d="M173.5,64.9v-7.7h5.6V58h-4.6v2.4h4.3v0.9h-4.3v2.6h4.7v0.9H173.5z"/>
			<path class="st0" d="M182.8,64.9v-7.7h1v6.8h3.8v0.9H182.8z"/>
			<path class="st0" d="M191,64.9v-7.7h1v6.8h3.8v0.9H191z"/>
			<path class="st0" d="M199.4,64.9v-7.7h1v7.7H199.4z"/>
			<path class="st0" d="M204.4,64.9v-7.7h1.1l4.1,6.1v-6.1h1v7.7h-1.1l-4.1-6.1v6.1H204.4z"/>
			<path class="st0" d="M218,61.8v-0.9l3.3,0v2.9c-0.5,0.4-1,0.7-1.6,0.9c-0.5,0.2-1.1,0.3-1.6,0.3c-0.8,0-1.5-0.2-2.1-0.5
				c-0.6-0.3-1.1-0.8-1.4-1.4c-0.3-0.6-0.5-1.3-0.5-2.1c0-0.8,0.2-1.5,0.5-2.1c0.3-0.7,0.8-1.1,1.4-1.5c0.6-0.3,1.3-0.5,2-0.5
				c0.6,0,1.1,0.1,1.5,0.3c0.5,0.2,0.8,0.4,1.1,0.8s0.5,0.7,0.6,1.3l-0.9,0.3c-0.1-0.4-0.3-0.7-0.4-0.9s-0.4-0.4-0.7-0.5
				c-0.3-0.1-0.7-0.2-1.1-0.2c-0.5,0-0.9,0.1-1.2,0.2c-0.3,0.1-0.6,0.3-0.8,0.6c-0.2,0.2-0.4,0.5-0.5,0.8c-0.2,0.5-0.3,1-0.3,1.6
				c0,0.7,0.1,1.3,0.4,1.7c0.2,0.5,0.6,0.8,1,1s0.9,0.3,1.4,0.3c0.4,0,0.9-0.1,1.3-0.3c0.4-0.2,0.7-0.4,1-0.5v-1.4H218z"/>
		</g>
	</g>
</g>
</svg>
