<svg id="圖層_1" data-name="圖層 1" xmlns="http://www.w3.org/2000/svg" viewBox="0 0 265 70"><defs><style>.cls-1{fill:#4b407a;}</style></defs><path class="cls-1" d="M39.76,64.83a4.29,4.29,0,0,0,1.65-.9,6.26,6.26,0,0,0,1.79-3,7.6,7.6,0,0,0,.25-1.73,6.39,6.39,0,0,0-.2-1.79,8,8,0,0,0-1.62-3.13A13.27,13.27,0,0,0,39.16,52a17,17,0,0,0-2.84-1.66l-.41-.17a4.45,4.45,0,0,0-.42-.15l-.77-.26c-.2-.06-.4-.1-.6-.15a79.28,79.28,0,0,1,3-8.58l1.74-4.39a50.08,50.08,0,0,1,7.5,8.55.21.21,0,0,0,.31,0,.21.21,0,0,0,.07-.27,39.29,39.29,0,0,0-6.54-10.2c-.15-.16-.31-.3-.45-.46.56-1.49,1.1-3,1.58-4.54l.45-1.46.4-1.47c.19-.72.44-1.75.7-3,.09-.41.63-3,.84-4.89.34-3,.64-5.75-.7-8.5a9.73,9.73,0,0,0-6-5.16,8.78,8.78,0,0,0-4.54.13,9.37,9.37,0,0,0-3.91,2.19,8.35,8.35,0,0,0-2.06,2.91c-.15.36-.25.7-.3.86a9.21,9.21,0,0,0-.36,2.53,10,10,0,0,0,.53,3.28A14.08,14.08,0,0,0,27.78,20a29.6,29.6,0,0,0,3.91,4.67A.23.23,0,0,0,32,24.4a40.27,40.27,0,0,1-2.88-5.12,12.61,12.61,0,0,1-.84-2.66A7,7,0,0,1,28.24,14c0-.14.67-3.3,3.4-4.22a5,5,0,0,1,3.11,0,6.23,6.23,0,0,1,3.56,3l.26.5c.09.15.2.42.28.6a7.8,7.8,0,0,1,.39,1.15,9.59,9.59,0,0,1,.3,2.46,30.44,30.44,0,0,1-.58,5.5c-.35,1.88-.76,3.78-1.22,5.68-.22,1-.46,2-.71,2.94-.46-.4-.9-.8-1.38-1.17a31.65,31.65,0,0,0-5.34-3.29,33.09,33.09,0,0,0-6-2.16,21.43,21.43,0,0,0-6.54-.61,15.85,15.85,0,0,0-3.38.58,14.7,14.7,0,0,0-3.25,1.42,13.26,13.26,0,0,0-4.94,5.18,10.48,10.48,0,0,0-.86,7.44A13.1,13.1,0,0,0,9,45.18,21.05,21.05,0,0,0,14.48,49a28.1,28.1,0,0,0,3,1.26c1,.36,2,.68,3,.95a35.22,35.22,0,0,0,6.2,1c1.85.16,3.62.28,5.3.5-.09.74-.17,1.49-.23,2.24a20,20,0,0,0,0,3.1,8.27,8.27,0,0,0,.92,3.1,7.48,7.48,0,0,0,2.18,2.46A6.65,6.65,0,0,0,37.94,65,4.34,4.34,0,0,0,39.76,64.83ZM21.63,47.17a21.55,21.55,0,0,1-9.28-5.25,9.13,9.13,0,0,1-2.34-4,5.93,5.93,0,0,1,.47-4.15,9,9,0,0,1,3.12-3.41,9.91,9.91,0,0,1,2.17-1.06,12.86,12.86,0,0,1,2.45-.56,17.35,17.35,0,0,1,5.31.21,29.79,29.79,0,0,1,5.39,1.49A33.42,33.42,0,0,1,34,32.92q1.19.75,2.31,1.59l-1.51,5.7c-.79,3-1.59,5.94-2.19,9-1.88-.39-3.72-.58-5.46-.83A34,34,0,0,1,21.63,47.17ZM35.72,62.42a5.42,5.42,0,0,1-1.82-1.9A6.78,6.78,0,0,1,33.1,58,9.37,9.37,0,0,1,33,56.54l.08-1.45c.06-.7.16-1.41.27-2.12l.47.08.65.16.3.08.28.09a15.16,15.16,0,0,1,2.43,1.11A7.41,7.41,0,0,1,40.92,58a4.72,4.72,0,0,1-.8,4.51,2.49,2.49,0,0,1-2,.76A5,5,0,0,1,35.72,62.42Z"/><path class="cls-1" d="M55.14,65a6.65,6.65,0,0,0,3.09-1.3,7.59,7.59,0,0,0,2.18-2.46,8.27,8.27,0,0,0,.92-3.1,20,20,0,0,0,0-3.1c-.06-.75-.14-1.5-.23-2.24,1.68-.22,3.44-.34,5.29-.5a35.33,35.33,0,0,0,6.21-1c1-.27,2-.59,3-.95a30,30,0,0,0,3-1.26A21.23,21.23,0,0,0,84,45.18a13.1,13.1,0,0,0,3.66-6.12,10.53,10.53,0,0,0-.86-7.44,13.26,13.26,0,0,0-4.94-5.18A14.7,14.7,0,0,0,78.65,25a16.06,16.06,0,0,0-3.38-.58,21.53,21.53,0,0,0-6.55.61,33,33,0,0,0-5.95,2.16,31.74,31.74,0,0,0-5.35,3.29c-.48.37-.92.77-1.37,1.17q-.37-1.47-.72-2.94c-.45-1.9-.86-3.8-1.21-5.68a31.4,31.4,0,0,1-.59-5.5,10.56,10.56,0,0,1,.3-2.46,7.87,7.87,0,0,1,.4-1.15c.08-.18.19-.45.28-.6l.26-.5a6.23,6.23,0,0,1,3.55-3,5,5,0,0,1,3.12,0c2.73.92,3.37,4.08,3.4,4.22a7,7,0,0,1-.08,2.62,12.61,12.61,0,0,1-.84,2.66A40.27,40.27,0,0,1,61,24.4a.23.23,0,0,0,0,.28.24.24,0,0,0,.32,0A29,29,0,0,0,65.29,20a13.6,13.6,0,0,0,1.39-2.87,9.76,9.76,0,0,0,.52-3.28,9.19,9.19,0,0,0-.35-2.53c0-.16-.15-.5-.3-.86a8.35,8.35,0,0,0-2.06-2.91,9.37,9.37,0,0,0-3.91-2.19A8.81,8.81,0,0,0,56,5.24a9.74,9.74,0,0,0-6,5.16c-1.34,2.75-1,5.45-.71,8.5.21,1.9.76,4.48.84,4.89.27,1.25.52,2.28.71,3l.4,1.47.45,1.46c.48,1.54,1,3.05,1.58,4.54-.14.16-.31.3-.45.46a39.29,39.29,0,0,0-6.54,10.2.21.21,0,0,0,.07.27.21.21,0,0,0,.31,0,49.65,49.65,0,0,1,7.5-8.55L56,41a81.49,81.49,0,0,1,3,8.58c-.2,0-.4.09-.6.15l-.77.26a3.64,3.64,0,0,0-.42.15l-.41.17A17.53,17.53,0,0,0,53.91,52a13.54,13.54,0,0,0-2.46,2.28,8.14,8.14,0,0,0-1.63,3.13,7.23,7.23,0,0,0-.2,1.79,7.61,7.61,0,0,0,.26,1.73,6.26,6.26,0,0,0,1.79,3,4.33,4.33,0,0,0,1.64.9A4.4,4.4,0,0,0,55.14,65ZM66,48.35c-1.74.25-3.58.44-5.46.83-.61-3-1.4-6-2.19-9l-1.52-5.7c.76-.56,1.53-1.09,2.32-1.59a33.42,33.42,0,0,1,5.06-2.49,29.35,29.35,0,0,1,5.39-1.49,17.35,17.35,0,0,1,5.31-.21,12.86,12.86,0,0,1,2.45.56,9.91,9.91,0,0,1,2.17,1.06,9,9,0,0,1,3.12,3.41,5.87,5.87,0,0,1,.46,4.15,8.94,8.94,0,0,1-2.34,4,21.52,21.52,0,0,1-9.27,5.25A34,34,0,0,1,66,48.35Zm-11,15a2.49,2.49,0,0,1-2-.76,4.67,4.67,0,0,1-.8-4.51,7.41,7.41,0,0,1,3.42-3.55A15.16,15.16,0,0,1,58,53.38l.28-.09.29-.08.66-.16L59.7,53c.12.71.22,1.42.28,2.12l.07,1.45A9.38,9.38,0,0,1,60,58a7,7,0,0,1-.8,2.57,5.42,5.42,0,0,1-1.82,1.9A5,5,0,0,1,55,63.31Z"/><path class="cls-1" d="M109.9,21.06a8.19,8.19,0,0,0,.4-1.14h23.75a8.48,8.48,0,0,1-.71,2A9.05,9.05,0,0,1,131.92,24h.93a8.7,8.7,0,0,0,1.85-2,9.73,9.73,0,0,0,1.13-2.34,10.2,10.2,0,0,0,.52-3.33H134a7.94,7.94,0,0,1,.25,2.05H122.58a6.16,6.16,0,0,0,.87-1.92,9.5,9.5,0,0,0,.41-2.42h-2.37a7,7,0,0,1,.11,2.64,5.32,5.32,0,0,1-.48,1.7H110.56a9.05,9.05,0,0,0-.09-2.05h-.93a6.32,6.32,0,0,1-.39,2.55,6.52,6.52,0,0,1-2.74,3.23L107.84,24A8.35,8.35,0,0,0,109.9,21.06Z"/><path class="cls-1" d="M117.46,31.67a10,10,0,0,0,1.14-2.35,10.38,10.38,0,0,0,.51-2.92h2V24.83h-5.63a7.32,7.32,0,0,0,.55-1.41,8.83,8.83,0,0,0,.41-2.42h-2.36a7,7,0,0,1,.1,2.64,6.47,6.47,0,0,1-.27,1.2H108.5V26.4h8.34a7.83,7.83,0,0,1,.06,2.78,8.57,8.57,0,0,1-.8,2.43l-.25.47h-1.8a8,8,0,0,0-.77-1.82,8.62,8.62,0,0,0-3.47-3.33l-.56.75a6.16,6.16,0,0,1,2.71,4.4h-4.73v1.58h14.89V32.08h-5C117.26,32,117.37,31.81,117.46,31.67Z"/><path class="cls-1" d="M126.71,49.6c-.07-.17-.16-.39-.24-.64h8.46V47.39h-8.78a7.67,7.67,0,0,1-.05-1.1V44.74h0v-.11h8.83V43.06H126.1V40.3h8.83V38.73H126.1V36.19h7.49v.45H136V29h-2.36v.52H126.1V26.4H136V24.83H126.1V21h-2.36V32.08h2.36v-1h7.49v3.53H126.1v-1h-2.36V46.29A9.68,9.68,0,0,0,125.46,52c2.29,3.21,6.66,4.67,11.15,3.79v-.93a9.39,9.39,0,0,1-1,.08C132.29,55,128.22,53.14,126.71,49.6Z"/><path class="cls-1" d="M118.19,36.64H111.8V35.4h-2.36V47.2a12.1,12.1,0,0,1-3.36,7.62v.93a9.9,9.9,0,0,0,5.72-8.53h6.39a10.91,10.91,0,0,1-.26,1.86,12.63,12.63,0,0,1-3.09,5.74c0,.31,0,.62,0,.93a9.88,9.88,0,0,0,5.73-8.55V46h0V35.4h-2.37Zm0,9H111.8V42.72h6.39v2.93Zm0-7.44v2.93H111.8V38.21Z"/><path class="cls-1" d="M156.38,19.82c4.37-.09,8-.2,12.35-1.59a29.11,29.11,0,0,0,4.3-1.76V14.11a43.8,43.8,0,0,1-7.34,3,41.84,41.84,0,0,1-8.75,1.7,39.17,39.17,0,0,1-6.84,0v.93C152.71,19.86,154.86,19.85,156.38,19.82Z"/><path class="cls-1" d="M150.79,27.44a8.19,8.19,0,0,0,.4-1.14h23.75a8.72,8.72,0,0,1-2.14,4h.94a8.7,8.7,0,0,0,1.85-2A9.73,9.73,0,0,0,176.72,26a10.2,10.2,0,0,0,.52-3.33h-2.37a8,8,0,0,1,.25,2.06H169a9.16,9.16,0,0,0,1.08-2.27,10.14,10.14,0,0,0,.52-3.32h-2.37a7.85,7.85,0,0,1,.16,3.19,8.62,8.62,0,0,1-.79,2.41h-3.18a6.07,6.07,0,0,0-.4-.81,8.56,8.56,0,0,0-3.47-3.33c-.19.25-.37.5-.56.74a6.22,6.22,0,0,1,1.81,1.85,5.82,5.82,0,0,1,.69,1.55H158c-.12-.27-.25-.54-.4-.81a8.63,8.63,0,0,0-3.48-3.33c-.18.25-.37.5-.56.74a6.16,6.16,0,0,1,2.51,3.4h-4.65a9.15,9.15,0,0,0-.09-2.06h-.94a6.09,6.09,0,0,1-.38,2.55,6.48,6.48,0,0,1-2.74,3.23c.48.63.95,1.26,1.43,1.88A8.35,8.35,0,0,0,150.79,27.44Z"/><path class="cls-1" d="M149.39,34.48l1.43,1.89a8.41,8.41,0,0,0,2.62-7.67h-.93a6.09,6.09,0,0,1-.38,2.55A6.53,6.53,0,0,1,149.39,34.48Z"/><path class="cls-1" d="M174.09,35.42a8.46,8.46,0,0,0-4.54-6.71l-.56.74a6.35,6.35,0,0,1,1,.79A13.18,13.18,0,0,1,166.81,32a8.57,8.57,0,0,0-3.46-3.32l-.57.74a6.11,6.11,0,0,1,1.81,1.85,6.31,6.31,0,0,1,.61,1.26l-.76.18a13.43,13.43,0,0,1-1.88.22h-4.39V28.7h-2.36v7.57h2.36V35h4.39a11.57,11.57,0,0,0,3-.51,7.82,7.82,0,0,1,0,.94h2.36a8.7,8.7,0,0,0-.36-1.78l.07,0a9.24,9.24,0,0,0,3-2.65c.08.11.16.23.23.35a6.42,6.42,0,0,1,.93,4.13Z"/><path class="cls-1" d="M169.85,41.86A9.24,9.24,0,0,0,170,40V38.71h-2.37v1.2H158a11.34,11.34,0,0,0,.14-1.25c0-.37,0-.73,0-1.09h-2.36c0,.3,0,.6,0,.89a9.29,9.29,0,0,1-.11,1.63c-.85,5.32-6.34,8.34-8.05,9.2v.93a27.52,27.52,0,0,0,4.89-2.76,14.36,14.36,0,0,0,3.89-3.5,14.3,14.3,0,0,0,4.7,5.32,54.64,54.64,0,0,1-13.85,5.79V56a40.23,40.23,0,0,0,7.15-1.8,44.6,44.6,0,0,0,8.38-3.8,44.58,44.58,0,0,0,8.37,3.8,40.61,40.61,0,0,0,7.16,1.8v-.93a54.49,54.49,0,0,1-13.85-5.79C167.08,47.38,169.28,44.94,169.85,41.86Zm-11.76-.37h9.42c-.48,2.57-2.3,4.77-4.71,6.62C160.39,46.26,158.57,44.06,158.09,41.49Z"/><path class="cls-1" d="M260,54.61a46.58,46.58,0,0,1-6-7.79c-6.43-10.47-7.56-21.36-7.72-27.33V18.06h0V14h-3.17v5.49c-.17,6-1.3,16.86-7.72,27.33a47.66,47.66,0,0,1-6,7.79c0,.47,0,.93,0,1.39a53.19,53.19,0,0,0,9.46-11.89,56.14,56.14,0,0,0,5.83-13.87,56.55,56.55,0,0,0,5.83,13.87A53.48,53.48,0,0,0,260,56Z"/><path class="cls-1" d="M212.79,28.11v-.49h6.08V26h-16.7c.18-.55.36-1.12.51-1.7a32,32,0,0,0,1-6.6V16.52h0V14.05h-3.42v3.72A41.24,41.24,0,0,1,199.21,26H189v1.58h9.77A34.12,34.12,0,0,1,195,36.27a31.61,31.61,0,0,1-4,5.28v.94h0c.59-.51,1.21-1.08,1.85-1.7a27.61,27.61,0,0,1,5.5,1.57,29.19,29.19,0,0,1,5.84,3.2A23.79,23.79,0,0,1,201,49.14,25.17,25.17,0,0,1,189,55v1a27.94,27.94,0,0,0,16.71-9.2q.38.3.75.63A32.71,32.71,0,0,1,210.81,52,33.36,33.36,0,0,1,213.4,56h.94l-.27-.83a30.32,30.32,0,0,0-4.63-7.31,28.54,28.54,0,0,0-2.51-2.57,34.56,34.56,0,0,0,4.79-10.17A32.28,32.28,0,0,0,212.79,28.11Zm-7.48,15.77a31,31,0,0,0-7.44-4.34,30.57,30.57,0,0,0-2.91-1,36.75,36.75,0,0,0,3.19-4.25,38.66,38.66,0,0,0,3.45-6.66h8v.49A32.08,32.08,0,0,1,205.31,43.88Z"/></svg>