<svg id="圖層_1" data-name="圖層 1" xmlns="http://www.w3.org/2000/svg" viewBox="0 0 20 20"><defs><style>.cls-1{fill:#b3b3b4;}</style></defs><path class="cls-1" d="M18.88,1.13a3.87,3.87,0,0,0-5.42,0s0,0,0,0l0,0h0L11.49,3.05,2,12.55a.69.69,0,0,0-.33.43L0,19.13a.72.72,0,0,0,.18.67.71.71,0,0,0,.49.2l.18,0L7,18.33l.06,0,.06,0a.5.5,0,0,0,.19-.13h0L17,8.52l1.95-1.95s0,0,0,0A3.87,3.87,0,0,0,18.88,1.13Zm-1,1a2.44,2.44,0,0,1,.73,1.75A2.47,2.47,0,0,1,18.33,5L15,1.68A2.45,2.45,0,0,1,17.9,2.11ZM2,17.27l.77.78-1.06.28Zm2.31.36-1.9-1.9.33-1.24,1.39,1.39L5.5,17.3Zm2.57-.95L5.12,15,3.33,13.17,12,4.52l1.76,1.75L15.49,8Zm9.64-9.63L14.72,5.29,13,3.54l1-1,3.51,3.51Z"/></svg>