<svg xmlns="http://www.w3.org/2000/svg" viewBox="0 0 47.18 38.03"><defs><style>.cls-1,.cls-2{fill:#a199b9;}.cls-1{opacity:0.2;}.cls-3{fill:#fff;}.cls-4{fill:#4c417a;}</style></defs><title>資產 7</title><g id="圖層_2" data-name="圖層 2"><g id="圖層_1-2" data-name="圖層 1"><circle class="cls-1" cx="28.95" cy="18.22" r="18.22"/><path class="cls-2" d="M33.09,14.39l3.58-3.58A1.25,1.25,0,0,0,34.91,9l-3.58,3.58a1.25,1.25,0,0,0,1.76,1.77Z"/><path class="cls-2" d="M33.47,22.24h5.06a1.25,1.25,0,0,0,0-2.5H33.47a1.25,1.25,0,0,0,0,2.5Z"/><path class="cls-2" d="M25.71,12.25V7.18a1.25,1.25,0,0,0-2.5,0v5.07a1.25,1.25,0,0,0,2.5,0Z"/><rect class="cls-3" y="18.22" width="28.95" height="19.81" rx="1"/><path class="cls-4" d="M19.26,26.65,29,35.36V20.69Z"/><path class="cls-4" d="M7.87,22.6l4.65,2.86c.33.2,1.42.73,2,1.12.54-.39,1.65-.93,2-1.12l4.65-2.86,7.06-4.34a1.29,1.29,0,0,0-.19,0H1a1.16,1.16,0,0,0-.18,0Z"/><path class="cls-4" d="M28.07,37.92,17,28l-1.93,1.19a1.24,1.24,0,0,1-1.26,0L11.91,28l-11,9.9L.78,38A.85.85,0,0,0,1,38H28a.78.78,0,0,0,.22,0Z"/><path class="cls-4" d="M0,20.69V35.36l9.7-8.71Q4.84,23.68,0,20.69Z"/></g></g></svg>