<svg xmlns="http://www.w3.org/2000/svg" viewBox="0 0 47.11 44.4"><defs><style>.cls-1,.cls-4{fill:#a199b9;}.cls-1{opacity:0.2;}.cls-2{fill:#4c417a;}.cls-3{fill:#fff;}</style></defs><title>資產 6</title><g id="圖層_2" data-name="圖層 2"><g id="圖層_1-2" data-name="圖層 1"><circle class="cls-1" cx="28.89" cy="18.22" r="18.22"/><path class="cls-2" d="M25.57,18.19H2a2,2,0,0,0-2,2V43.4A1,1,0,0,0,1.79,44l5.29-6.79a2,2,0,0,1,1.58-.78H25.57a2,2,0,0,0,2-2V20.19A2,2,0,0,0,25.57,18.19Z"/><path class="cls-3" d="M13.78,31H7a1.25,1.25,0,0,1,0-2.5h6.79A1.25,1.25,0,0,1,13.78,31Z"/><path class="cls-3" d="M20.58,25.54H7A1.25,1.25,0,0,1,7,23H20.58A1.25,1.25,0,0,1,20.58,25.54Z"/><path class="cls-4" d="M33,14.39l3.58-3.58A1.25,1.25,0,0,0,34.84,9l-3.58,3.58A1.25,1.25,0,0,0,33,14.39Z"/><path class="cls-4" d="M33.4,22.24h5.07a1.25,1.25,0,0,0,0-2.5H33.4a1.25,1.25,0,0,0,0,2.5Z"/><path class="cls-4" d="M25.65,12.25V7.18a1.25,1.25,0,0,0-2.5,0v5.07a1.25,1.25,0,0,0,2.5,0Z"/></g></g></svg>