<svg id="圖層_1" data-name="圖層 1" xmlns="http://www.w3.org/2000/svg" viewBox="0 0 30 30"><defs><style>.cls-1{fill:#fff;}</style></defs><g id="ZbFIeu"><path class="cls-1" d="M6.5,28.36V29H4.68v-.6H2.92a.62.62,0,0,1-.66-.75l.36-2.41c.12-.85.25-1.7.38-2.54s.25-1.69.37-2.54.25-1.69.38-2.54l.39-2.67c.13-.84.25-1.69.38-2.54.05-.36.1-.73.16-1.09a.61.61,0,0,1,.64-.51h3a1.24,1.24,0,0,1,.5-1,1.15,1.15,0,0,1,.75-.23,1.23,1.23,0,0,1,1.19,1.2h8.48a1.23,1.23,0,0,1,.52-1,1.22,1.22,0,0,1,.71-.22,1.26,1.26,0,0,1,.6.17,1.1,1.1,0,0,1,.44.44c.08.19.13.39.2.59l0,0h3a.61.61,0,0,1,.66.56c0,.11,0,.23.05.34.16,1.09.33,2.17.49,3.26s.31,2.15.47,3.22.31,2.06.46,3.08.27,1.88.41,2.81l.42,2.81c0,.27.07.53.12.79a.64.64,0,0,1-.63.72c-.55,0-1.11,0-1.66,0h-.13V29H23.49v-.6Zm8.1-12.75H8.89a.57.57,0,0,0-.51.35.59.59,0,0,0,.06.6.66.66,0,0,0,.58.26H20.28a.26.26,0,0,1,.18.07.94.94,0,0,0,1.06.11.89.89,0,0,0,.45-.87.84.84,0,0,0-.55-.75.87.87,0,0,0-1,.16.26.26,0,0,1-.18.07Zm5.86,3.93V21.1a.61.61,0,1,0,1.21-.05c0-1,0-2,0-3a.61.61,0,1,0-1.21,0Z"/><path class="cls-1" d="M8.93,7.38a6,6,0,0,1,.29-2.1,5.93,5.93,0,0,1,1.23-2.17A6.06,6.06,0,0,1,18,1.85,6,6,0,0,1,20.94,5.9,7.1,7.1,0,0,1,21.06,7c0,.42,0,.84,0,1.27a.61.61,0,1,1-1.22,0V7.14a4.71,4.71,0,0,0-.34-1.82,4.68,4.68,0,0,0-2.88-2.77A4.73,4.73,0,0,0,12,3.34,4.64,4.64,0,0,0,10.27,6a4.7,4.7,0,0,0-.13,1.12c0,.4,0,.8,0,1.2a.61.61,0,1,1-1.21,0Z"/></g></svg>