<svg xmlns="http://www.w3.org/2000/svg" viewBox="0 0 886.16 200.66"><defs><style>.cls-1,.cls-11{fill:none;stroke-miterlimit:10;}.cls-1{stroke:#b5b5b6;}.cls-2{fill:#dcdddd;}.cls-12,.cls-2{opacity:0.2;}.cls-10,.cls-3,.cls-5{fill:#b5b5b6;}.cls-4{font-size:24px;fill:#fff;font-family:Cochin-Bold, Cochin;font-weight:700;letter-spacing:0.05em;}.cls-14,.cls-5{font-size:10px;font-family:NotoSansCJKtc-DemiLight-B5pc-H, Noto Sans CJK TC;}.cls-14,.cls-17,.cls-5{letter-spacing:0.05em;}.cls-6{letter-spacing:0.03em;}.cls-7{letter-spacing:0.05em;}.cls-8{letter-spacing:0.04em;}.cls-9{letter-spacing:0.04em;}.cls-10,.cls-18{font-size:14px;font-family:NotoSansCJKtc-Medium-B5pc-H, Noto Sans CJK TC;letter-spacing:0.1em;}.cls-11{stroke:#4c417a;}.cls-12{fill:#a199b9;}.cls-13,.cls-18{fill:#4c417a;}.cls-14{fill:#3e3a39;}.cls-15{letter-spacing:0.05em;}.cls-16{letter-spacing:0.03em;}.cls-19{letter-spacing:0.03em;}.cls-20{letter-spacing:0.06em;}.cls-21{letter-spacing:0.06em;}.cls-22{letter-spacing:0.04em;}.cls-23{letter-spacing:0.03em;}</style></defs><title>資產 2</title><g id="圖層_2" data-name="圖層 2"><g id="圖層_1-2" data-name="圖層 1"><path class="cls-1" d="M126.1,61.25A60.81,60.81,0,1,1,18.89,22"/><circle class="cls-2" cx="65.29" cy="61.25" r="50.28"/><circle class="cls-3" cx="19.52" cy="19.52" r="19.52"/><text class="cls-4" transform="translate(13.04 26.68)">1</text><text class="cls-5" transform="translate(12.95 174.18)">Fill in <tspan class="cls-6" x="30.93" y="0">b</tspan><tspan x="37.41" y="0">asic pe</tspan><tspan class="cls-7" x="72.75" y="0">r</tspan><tspan x="77" y="0">sonal</tspan><tspan x="22.19" y="16">in</tspan><tspan class="cls-8" x="31.93" y="16">f</tspan><tspan x="35.49" y="16">orm</tspan><tspan class="cls-9" x="55.99" y="16">a</tspan><tspan x="61.93" y="16">tion</tspan></text><text class="cls-10" transform="translate(4.49 153.72)">填寫個人基本資料</text><path class="cls-3" d="M84.81,40.53H42.91a2.35,2.35,0,0,0-2.33,2.33V83.21a2.34,2.34,0,0,0,2.33,2.32h41.9a2.34,2.34,0,0,0,2.33-2.32V42.86A2.35,2.35,0,0,0,84.81,40.53Zm-41.9,1.56h41.9a.76.76,0,0,1,.77.77v3.88H42.14V42.86A.76.76,0,0,1,42.91,42.09ZM84.81,84H42.91a.76.76,0,0,1-.77-.77V48.29H85.58V83.21A.76.76,0,0,1,84.81,84Z"/><circle class="cls-3" cx="50.67" cy="44.41" r="0.78"/><circle class="cls-3" cx="47.57" cy="44.41" r="0.78"/><circle class="cls-3" cx="44.46" cy="44.41" r="0.78"/><path class="cls-3" d="M60,53h7.76a.78.78,0,0,0,.78-.78.77.77,0,0,0-.78-.77H60a.76.76,0,0,0-.77.77A.77.77,0,0,0,60,53Z"/><path class="cls-3" d="M73.17,54.5H54.55a.78.78,0,0,0-.78.78v3.1a.78.78,0,0,0,.78.78H73.17a.78.78,0,0,0,.78-.78v-3.1A.78.78,0,0,0,73.17,54.5Zm-.78,3.1H55.33V56.05H72.39Z"/><path class="cls-3" d="M73.17,60.71H54.55a.77.77,0,0,0-.78.77v3.11a.78.78,0,0,0,.78.77H73.17a.78.78,0,0,0,.78-.77V61.48A.77.77,0,0,0,73.17,60.71Zm-.78,3.1H55.33V62.26H72.39Z"/><path class="cls-3" d="M73.17,66.91H54.55a.78.78,0,0,0-.78.78V73.9a.78.78,0,0,0,.78.77H73.17A.78.78,0,0,0,74,73.9V67.69A.78.78,0,0,0,73.17,66.91Zm-.78,6.21H55.33V68.47H72.39Z"/><path class="cls-3" d="M65.41,76.22h-3.1a2.33,2.33,0,0,0,0,4.66h3.1a2.33,2.33,0,0,0,0-4.66Zm0,3.11h-3.1a.78.78,0,0,1-.78-.78.77.77,0,0,1,.78-.77h3.1a.77.77,0,0,1,.78.77A.78.78,0,0,1,65.41,79.33Z"/><path class="cls-11" d="M315.14,61.25A60.8,60.8,0,1,1,207.94,22"/><circle class="cls-12" cx="254.34" cy="61.25" r="50.28"/><circle class="cls-13" cx="208.57" cy="19.52" r="19.52"/><text class="cls-4" transform="translate(202.09 26.68)">2</text><text class="cls-14" transform="translate(209.17 174.18)">Mobile and Email <tspan class="cls-7"><tspan x="16.4" y="16">v</tspan><tspan class="cls-15" x="21.97" y="16">erifi</tspan><tspan class="cls-8" x="42.01" y="16">c</tspan><tspan class="cls-16" x="47.46" y="16">a</tspan><tspan class="cls-17" x="53.4" y="16">tion</tspan></tspan></text><text class="cls-18" transform="translate(193.54 153.72)">進行手機信箱驗證</text><path class="cls-13" d="M263.29,41.86h-22.5A3.75,3.75,0,0,0,237,45.61v37.5a3.75,3.75,0,0,0,3.75,3.75h22.5A3.75,3.75,0,0,0,267,83.11V45.61A3.75,3.75,0,0,0,263.29,41.86Zm1.88,41.25A1.88,1.88,0,0,1,263.29,85h-22.5a1.88,1.88,0,0,1-1.87-1.88V79.36h26.25v3.75Zm0-5.62H238.92V45.61a1.87,1.87,0,0,1,1.87-1.87h22.5a1.88,1.88,0,0,1,1.88,1.87Z"/><path class="cls-13" d="M251.1,47.49H253a.94.94,0,0,0,0-1.88H251.1a.94.94,0,0,0,0,1.88Z"/><path class="cls-13" d="M249.23,83.11h5.62a.94.94,0,1,0,0-1.87h-5.62a.94.94,0,1,0,0,1.87Z"/><circle class="cls-13" cx="262.35" cy="46.55" r="0.94"/><path class="cls-13" d="M258.6,56.86H245.48a2.81,2.81,0,0,0-2.81,2.81v9.38a2.81,2.81,0,0,0,2.81,2.81H258.6a2.81,2.81,0,0,0,2.82-2.81V59.67A2.81,2.81,0,0,0,258.6,56.86Zm-13.12,1.88H258.6a.83.83,0,0,1,.32.06L252,64.44l-6.88-5.64A.87.87,0,0,1,245.48,58.74Zm14.06,10.31a.94.94,0,0,1-.94.94H245.48a.94.94,0,0,1-.94-.94V60.72l6.4,5.23a2.05,2.05,0,0,0,1.1.33,2.15,2.15,0,0,0,1.19-.39l6.31-5.17v8.33Z"/><path class="cls-1" d="M504.19,61.25A60.8,60.8,0,1,1,397,22"/><circle class="cls-2" cx="443.39" cy="61.25" r="50.28"/><circle class="cls-3" cx="397.61" cy="19.52" r="19.52"/><text class="cls-4" transform="translate(391.14 26.68)">3</text><text class="cls-5" transform="translate(389.64 174.18)">Upl<tspan class="cls-6" x="17.6" y="0">o</tspan><tspan class="cls-15" x="23.96" y="0">ad a </tspan><tspan class="cls-19" x="48.25" y="0">c</tspan><tspan x="53.58" y="0">o</tspan><tspan class="cls-7" x="60.1" y="0">p</tspan><tspan x="66.71" y="0">y of the </tspan><tspan class="cls-19"><tspan x="28.21" y="16">c</tspan><tspan class="cls-17" x="33.54" y="16">ertifi</tspan><tspan class="cls-8" x="57.77" y="16">c</tspan><tspan class="cls-9" x="63.22" y="16">at</tspan><tspan class="cls-17" x="73.2" y="16">e</tspan></tspan></text><text class="cls-10" transform="translate(382.59 153.72)">上傳證件相關影本</text><path class="cls-3" d="M424.25,85.53h37.5a3.75,3.75,0,0,0,3.75-3.75V56.28a3.76,3.76,0,0,0-3.75-3.75H461V48.78a.77.77,0,0,0-.22-.53l-7.5-7.5a.75.75,0,0,0-.53-.22h-19.5a3.76,3.76,0,0,0-3.75,3.75V48h-5.25a3.76,3.76,0,0,0-3.75,3.75v30A3.76,3.76,0,0,0,424.25,85.53ZM461.75,54A2.25,2.25,0,0,1,464,56.28v25.5A2.24,2.24,0,0,1,461.75,84h-3a2.25,2.25,0,0,1-2.25-2.25V81h.75A3.75,3.75,0,0,0,461,77.28V54ZM453.5,43.09,458.44,48h-2.69a2.25,2.25,0,0,1-2.25-2.25ZM431,44.28A2.27,2.27,0,0,1,433.25,42H452v3.75a3.76,3.76,0,0,0,3.75,3.75h3.75V77.28a2.24,2.24,0,0,1-2.25,2.25h-.75V60.78A3.76,3.76,0,0,0,452.75,57H437V51.78A3.76,3.76,0,0,0,433.25,48H431Zm-9,7.5a2.27,2.27,0,0,1,2.25-2.25h9a2.25,2.25,0,0,1,2.25,2.25v6a.75.75,0,0,0,.75.75h16.5A2.25,2.25,0,0,1,455,60.78v21a3.7,3.7,0,0,0,.76,2.25H424.25A2.25,2.25,0,0,1,422,81.78Z"/><path class="cls-3" d="M444.5,53.28a.75.75,0,0,0,.75.75h10.5a.75.75,0,0,0,0-1.5h-10.5A.76.76,0,0,0,444.5,53.28Z"/><path class="cls-3" d="M440,49.53h5.25a.75.75,0,0,0,0-1.5H440a.75.75,0,0,0,0,1.5Z"/><path class="cls-3" d="M442.25,52.53h-1.5a.75.75,0,0,0,0,1.5h1.5a.75.75,0,0,0,0-1.5Z"/><path class="cls-3" d="M431,70.53h2.25v8.25a.75.75,0,0,0,.75.75h4.5a.74.74,0,0,0,.75-.75V70.53h2.25a.75.75,0,0,0,.57-1.24l-5.25-6a.76.76,0,0,0-1.06-.07l-.07.07-5.25,6a.76.76,0,0,0,.07,1.06A.74.74,0,0,0,431,70.53Zm5.25-5.61,3.6,4.11H438.5a.76.76,0,0,0-.75.75V78h-3V69.78A.75.75,0,0,0,434,69h-1.34Z"/><path class="cls-1" d="M693.24,61.25A60.8,60.8,0,1,1,586,22"/><circle class="cls-2" cx="632.44" cy="61.25" r="50.28"/><circle class="cls-3" cx="586.66" cy="19.52" r="19.52"/><text class="cls-4" transform="translate(580.19 26.68)">4</text><text class="cls-5" transform="translate(565.71 174.18)">Condu<tspan class="cls-8" x="33.08" y="0">c</tspan><tspan x="38.53" y="0">t document </tspan><tspan class="cls-8" x="99.85" y="0">r</tspan><tspan class="cls-20" x="104.03" y="0">e</tspan><tspan x="110.09" y="0">vi</tspan><tspan class="cls-21" x="118.89" y="0">e</tspan><tspan class="cls-15" x="124.95" y="0">w</tspan></text><text class="cls-10" transform="translate(571.64 153.72)">實名文件證件審核</text><path class="cls-3" d="M637.69,54.3a.66.66,0,0,0,0-1.32H625.2a.66.66,0,0,0,0,1.32Z"/><path class="cls-3" d="M617.91,57.46a.67.67,0,0,0,.66.66h15.35a.66.66,0,1,0,0-1.32H618.57a.67.67,0,0,0-.66.66Z"/><path class="cls-3" d="M618.57,61.94h12.88a.66.66,0,0,0,0-1.32H618.57a.66.66,0,0,0,0,1.32Z"/><path class="cls-3" d="M618.57,65.76h11.81a.66.66,0,1,0,0-1.31H618.57a.66.66,0,1,0,0,1.31Z"/><path class="cls-3" d="M618.57,69.58h11.81a.66.66,0,1,0,0-1.31H618.57a.66.66,0,1,0,0,1.31Z"/><path class="cls-3" d="M618.57,73.41h12.88a.66.66,0,0,0,0-1.32H618.57a.66.66,0,0,0,0,1.32Z"/><path class="cls-3" d="M618.57,77.23h19.12a.66.66,0,1,0,0-1.32H618.57a.66.66,0,0,0,0,1.32Z"/><path class="cls-3" d="M618.57,81.05h19.12a.66.66,0,0,0,0-1.32H618.57a.66.66,0,0,0,0,1.32Z"/><path class="cls-3" d="M642.51,56.69h-.14V48.32a2,2,0,0,0-2-2h-5.08v-1a1.19,1.19,0,0,0-1.18-1.19h-2.72v-.3a3.28,3.28,0,1,0-6.56,0v.3h-2.71A1.19,1.19,0,0,0,621,45.33v1h-5.07a2,2,0,0,0-2,2v3.12a.66.66,0,0,0,1.32,0V48.32a.67.67,0,0,1,.67-.67H621v1a1.19,1.19,0,0,0,1.19,1.19h12a1.19,1.19,0,0,0,1.18-1.19v-1h5.08a.67.67,0,0,1,.67.67V56.8a9.11,9.11,0,0,0-4,1.69.65.65,0,0,0-.14.92.67.67,0,0,0,.92.14,7.85,7.85,0,0,1,4.7-1.54,7.93,7.93,0,1,1-6.63,3.58.66.66,0,1,0-1.1-.73,9.24,9.24,0,0,0,6.28,14.21v8.48a.67.67,0,0,1-.67.67H615.88a.67.67,0,0,1-.67-.67V54.49a.66.66,0,0,0-1.32,0V83.55a2,2,0,0,0,2,2h24.51a2,2,0,0,0,2-2V75.18h.14a9.25,9.25,0,0,0,0-18.49ZM634,48.53H622.27V45.46h3.24a.67.67,0,0,0,.66-.66v-1a2,2,0,1,1,3.93,0v1a.66.66,0,0,0,.66.66H634v3.07Z"/><path class="cls-3" d="M641.31,70.55h.06a2.09,2.09,0,0,0,1.45-.66l4.72-5.12A2.06,2.06,0,0,0,646,61.32a2.06,2.06,0,0,0-1.43.66l-3.29,3.57-.82-.79a2.06,2.06,0,1,0-2.86,3L639.88,70a2.06,2.06,0,0,0,1.43.58Zm-2.86-4.82a.74.74,0,0,1,.53-.23.75.75,0,0,1,.52.21L640.8,67a.62.62,0,0,0,.47.18.64.64,0,0,0,.47-.21l3.75-4.07a.73.73,0,0,1,1,0,.75.75,0,0,1,.05,1.05L641.85,69a.69.69,0,0,1-.52.24h0a.69.69,0,0,1-.51-.21l-2.33-2.25A.73.73,0,0,1,638.45,65.73Z"/><path class="cls-1" d="M882.29,61.25A60.8,60.8,0,1,1,775.08,22"/><circle class="cls-2" cx="821.49" cy="61.25" r="50.28"/><circle class="cls-3" cx="775.71" cy="19.52" r="19.52"/><text class="cls-4" transform="translate(769.24 26.68)">5</text><text class="cls-5" transform="translate(773.11 174.18)">Compl<tspan class="cls-22" x="32.99" y="0">e</tspan><tspan class="cls-9" x="38.87" y="0">t</tspan><tspan x="42.91" y="0">e member </tspan><tspan class="cls-8"><tspan x="-16.4" y="16">r</tspan><tspan class="cls-23" x="-12.22" y="16">e</tspan><tspan class="cls-17" x="-6.39" y="16">al-name authenti</tspan><tspan x="81.21" y="16">c</tspan><tspan class="cls-9" x="86.66" y="16">a</tspan><tspan class="cls-17" x="92.6" y="16">tion</tspan></tspan></text><text class="cls-10" transform="translate(760.69 153.72)">完成會員實名認證</text><path class="cls-3" d="M839.31,45.61H806a3.26,3.26,0,0,0-3.25,3.25v1.67h-1.89a3.26,3.26,0,0,0-3.25,3.25V77.21a3.26,3.26,0,0,0,3.25,3.25h33.35a3.26,3.26,0,0,0,3.25-3.25V75.54h1.89a3.26,3.26,0,0,0,3.26-3.25V48.86a3.26,3.26,0,0,0-3.26-3.25Zm-3.65,31.6a1.49,1.49,0,0,1-1.49,1.49H800.82a1.5,1.5,0,0,1-1.5-1.49V53.78a1.5,1.5,0,0,1,1.5-1.49h33.35a1.49,1.49,0,0,1,1.49,1.49Zm5.15-4.92a1.5,1.5,0,0,1-1.5,1.49h-1.89v-20a3.26,3.26,0,0,0-3.25-3.25h-29.7V48.86A1.49,1.49,0,0,1,806,47.37h33.35a1.5,1.5,0,0,1,1.5,1.49Z"/><path class="cls-3" d="M809.71,56.84A8.66,8.66,0,0,0,805.38,73h0a8.66,8.66,0,1,0,4.33-16.16Zm3,14.87a6.89,6.89,0,0,1-6,0V70.59a.18.18,0,0,1,.18-.18h5.65a.18.18,0,0,1,.18.18Zm1.76-1.22a1.94,1.94,0,0,0-1.94-1.84h-5.65A1.93,1.93,0,0,0,805,70.49a6.9,6.9,0,1,1,9.52,0Z"/><path class="cls-3" d="M809.71,59.75a4.07,4.07,0,1,0,4.06,4.07A4.07,4.07,0,0,0,809.71,59.75Zm0,6.37a2.31,2.31,0,1,1,2.3-2.3A2.31,2.31,0,0,1,809.71,66.12Z"/><path class="cls-3" d="M833.06,59.87a.88.88,0,0,1-.56-1.56.89.89,0,0,1,1-.06.88.88,0,0,1,.4.94.89.89,0,0,1-.86.68Z"/><path class="cls-3" d="M829.31,59.87h-7.56a.88.88,0,1,1,0-1.76h7.56a.88.88,0,1,1,0,1.76Z"/><path class="cls-3" d="M833.06,64.21H821.75a.88.88,0,0,1,0-1.76h11.31a.88.88,0,1,1,0,1.76Z"/><path class="cls-3" d="M833.06,68.54H821.75a.88.88,0,1,1,0-1.76h11.31a.88.88,0,1,1,0,1.76Z"/><path class="cls-3" d="M833.06,72.88h-5.8a.88.88,0,0,1,0-1.76h5.8a.88.88,0,1,1,0,1.76Z"/><line class="cls-1" x1="126.1" y1="61.25" x2="192.34" y2="61.25"/><path class="cls-3" d="M185.5,66.05a.5.5,0,0,1,.16-.69l6.45-4.11-6.45-4.11a.5.5,0,0,1-.16-.69.51.51,0,0,1,.7-.15l7.11,4.53a.5.5,0,0,1,.23.42.54.54,0,0,1-.23.43l-7.11,4.53a.54.54,0,0,1-.27.07A.51.51,0,0,1,185.5,66.05Z"/><line class="cls-11" x1="315.14" y1="61.25" x2="381.39" y2="61.25"/><path class="cls-13" d="M374.55,66.05a.49.49,0,0,1,.16-.69l6.45-4.11-6.45-4.11a.49.49,0,0,1-.16-.69.5.5,0,0,1,.69-.15l7.12,4.53a.5.5,0,0,1,.23.42.54.54,0,0,1-.23.43l-7.12,4.53a.48.48,0,0,1-.26.07A.51.51,0,0,1,374.55,66.05Z"/><line class="cls-1" x1="504.19" y1="61.25" x2="570.44" y2="61.25"/><path class="cls-3" d="M563.6,66.05a.49.49,0,0,1,.16-.69l6.45-4.11-6.45-4.11a.49.49,0,0,1-.16-.69.5.5,0,0,1,.69-.15l7.12,4.53a.5.5,0,0,1,.23.42.54.54,0,0,1-.23.43l-7.12,4.53a.5.5,0,0,1-.27.07A.51.51,0,0,1,563.6,66.05Z"/><line class="cls-1" x1="693.24" y1="61.25" x2="759.48" y2="61.25"/><path class="cls-3" d="M752.65,66.05a.5.5,0,0,1,.15-.69l6.46-4.11-6.46-4.11a.5.5,0,1,1,.54-.84l7.12,4.53a.5.5,0,0,1,.23.42.54.54,0,0,1-.23.43l-7.12,4.53a.52.52,0,0,1-.27.07A.51.51,0,0,1,752.65,66.05Z"/></g></g></svg>