<svg id="圖層_1" data-name="圖層 1" xmlns="http://www.w3.org/2000/svg" viewBox="0 0 60 60"><defs><style>.cls-1{fill:#4c417a;}</style></defs><path class="cls-1" d="M57.74,26.9h-6c2.76-1.68,4.23-4.08,4.11-6.23a6.21,6.21,0,0,0-4.81-5.47c-2.82-.52-5,1.57-6,2.46a10.39,10.39,0,0,0-2.84,4.88,8.22,8.22,0,0,0-3.86-4.63c-.73-.38-3-1.52-5.17-.42a5.5,5.5,0,0,0-2.75,5.24,6,6,0,0,0,2.44,4.17h-6.6a2.16,2.16,0,0,0-2.16,2.16v4.62a2.16,2.16,0,0,0,2.16,2.16H27V53.48a1,1,0,0,0,1,1H56.08a1,1,0,0,0,1-1V35.84h.66a2.16,2.16,0,0,0,2.16-2.16V29.06A2.16,2.16,0,0,0,57.74,26.9ZM41.92,25.55a2.73,2.73,0,0,1,2.45,1.35H39.71A2.74,2.74,0,0,1,41.92,25.55Zm-2.6,3.35h5.43v4.94H39.32Zm7.18-9.79c.77-.74,2.4-2.28,4.22-1.94a4.28,4.28,0,0,1,3.17,3.61c.13,2.28-2.78,5.09-7.39,6A4.84,4.84,0,0,0,44,24,8.62,8.62,0,0,1,46.5,19.11Zm-12.36.17c1.3-.65,2.8.12,3.37.41a6.47,6.47,0,0,1,3.08,4.11,4.85,4.85,0,0,0-3,3c-3.12-.54-4.94-2.49-5.08-4.21A3.51,3.51,0,0,1,34.14,19.28Zm-8,14.4V29.06a.16.16,0,0,1,.16-.16h11v4.94h-11A.16.16,0,0,1,26.18,33.68ZM29,35.84h8.32V52.48H29ZM39.32,52.48V35.84h5.43V52.48Zm15.76,0H46.75V35.84h8.33Zm2.82-18.8a.16.16,0,0,1-.16.16h-11V28.9h11a.16.16,0,0,1,.16.16Z"/><path class="cls-1" d="M21.47,39.47a.94.94,0,0,0,.69-1.15,1,1,0,0,0-1.15-.7,15.32,15.32,0,1,1,9.4-22.85,1,1,0,0,0,1.31.32A.94.94,0,0,0,32,13.78,17.22,17.22,0,1,0,21.47,39.47Z"/><path class="cls-1" d="M10.83,19.12a3.7,3.7,0,0,0-1-.1H8.36a.79.79,0,0,0-.55.16.7.7,0,0,0-.17.54v4.36a.78.78,0,0,0,.15.51.54.54,0,0,0,.42.18.52.52,0,0,0,.41-.18.74.74,0,0,0,.16-.52v-1.6H9.83A2.38,2.38,0,0,0,11.41,22,1.59,1.59,0,0,0,12,20.71a2.11,2.11,0,0,0-.13-.73,1.5,1.5,0,0,0-.39-.54A1.45,1.45,0,0,0,10.83,19.12Zm-.19,2.12a.78.78,0,0,1-.41.28,2.22,2.22,0,0,1-.68.08H8.78V19.88h.77a1.48,1.48,0,0,1,1,.25.88.88,0,0,1,.22.61A.8.8,0,0,1,10.64,21.24Z"/><path class="cls-1" d="M15.24,20.64a2.41,2.41,0,0,0-.87-.15,2.35,2.35,0,0,0-.86.15,1.82,1.82,0,0,0-1.08,1.11,2.46,2.46,0,0,0-.15.88,2.63,2.63,0,0,0,.14.86,1.92,1.92,0,0,0,.43.68,1.78,1.78,0,0,0,.66.44,2.31,2.31,0,0,0,.86.16,2.41,2.41,0,0,0,.87-.16,1.8,1.8,0,0,0,1.08-1.12,2.39,2.39,0,0,0,.15-.86,2.65,2.65,0,0,0-.14-.87,1.92,1.92,0,0,0-.43-.68A1.78,1.78,0,0,0,15.24,20.64Zm-.11,3a1,1,0,0,1-1.31.2,1,1,0,0,1-.36-.47,2.25,2.25,0,0,1,0-1.45,1.13,1.13,0,0,1,.36-.48,1,1,0,0,1,.55-.16.92.92,0,0,1,.76.36,1.6,1.6,0,0,1,.28,1A1.55,1.55,0,0,1,15.13,23.62Z"/><path class="cls-1" d="M17.44,20.64a.73.73,0,0,0-.14.47v3a.73.73,0,0,0,.14.47.49.49,0,0,0,.38.17.5.5,0,0,0,.38-.17.65.65,0,0,0,.15-.47V21.08a.63.63,0,0,0-.15-.44.52.52,0,0,0-.38-.15A.5.5,0,0,0,17.44,20.64Z"/><path class="cls-1" d="M18.19,19.1a.56.56,0,0,0-.73,0,.47.47,0,0,0-.16.37.49.49,0,0,0,.15.38.57.57,0,0,0,.38.14.57.57,0,0,0,.37-.14.49.49,0,0,0,.15-.38A.44.44,0,0,0,18.19,19.1Z"/><path class="cls-1" d="M22.26,24.6a.47.47,0,0,0,.38.17A.47.47,0,0,0,23,24.6a.65.65,0,0,0,.15-.47v-2a4.34,4.34,0,0,0,0-.57,1.23,1.23,0,0,0-.14-.42,1.1,1.1,0,0,0-.49-.51,1.47,1.47,0,0,0-.74-.18,1.55,1.55,0,0,0-.76.17,1.86,1.86,0,0,0-.61.53v-.12a.73.73,0,0,0-.06-.32.51.51,0,0,0-.18-.2.54.54,0,0,0-.25-.06.49.49,0,0,0-.36.14.65.65,0,0,0-.13.45v3.05a.73.73,0,0,0,.14.47.5.5,0,0,0,.38.17.53.53,0,0,0,.38-.16.69.69,0,0,0,.15-.48V22.81a3.29,3.29,0,0,1,.08-.88.89.89,0,0,1,.34-.46.79.79,0,0,1,.51-.17.6.6,0,0,1,.58.27,1.88,1.88,0,0,1,.14.8v1.76A.68.68,0,0,0,22.26,24.6Z"/><path class="cls-1" d="M24.46,24.14a.74.74,0,0,0,.33.46,1.39,1.39,0,0,0,.75.17,1.88,1.88,0,0,0,.8-.14.43.43,0,0,0,.28-.39.37.37,0,0,0-.1-.25.32.32,0,0,0-.23-.1l-.25,0-.25,0a.36.36,0,0,1-.25-.08.4.4,0,0,1-.09-.22,3.32,3.32,0,0,1,0-.38V21.34h.2a1,1,0,0,0,.48-.09.29.29,0,0,0,.17-.29.36.36,0,0,0-.12-.28.49.49,0,0,0-.34-.1h-.39v-.72a2.15,2.15,0,0,0,0-.41.36.36,0,0,0-.13-.24.54.54,0,0,0-.62-.09.52.52,0,0,0-.18.18.61.61,0,0,0-.08.25c0,.09,0,.23,0,.4v.63h-.11a.56.56,0,0,0-.37.1.36.36,0,0,0-.12.28.34.34,0,0,0,.12.27.5.5,0,0,0,.34.11h.14v2A3.22,3.22,0,0,0,24.46,24.14Z"/><path class="cls-1" d="M23.75,47.36l-4.23-1.61a.48.48,0,0,0-.65.5L19,47.48a11.24,11.24,0,0,1-8.84-1.93,10.93,10.93,0,0,1-3.83-6.14,1,1,0,0,0-1.86.43A12.92,12.92,0,0,0,9,47.06a13.09,13.09,0,0,0,10.08,2.33l.14,0,.12,1a.48.48,0,0,0,.74.34l3.76-2.52A.48.48,0,0,0,23.75,47.36Z"/></svg>