<svg id="圖層_1" data-name="圖層 1" xmlns="http://www.w3.org/2000/svg" viewBox="0 0 60 60"><defs><style>.cls-1{fill:#4c417a;}</style></defs><path class="cls-1" d="M22.11,32.68H34.24A2.74,2.74,0,0,0,37,29.94V26.5a1,1,0,0,0-.64-.93,1,1,0,0,0-1.1.26,2.59,2.59,0,0,1-1.93.86,2.63,2.63,0,0,1,0-5.25,2.59,2.59,0,0,1,1.93.86A1,1,0,0,0,37,21.63V18.44a2.74,2.74,0,0,0-2.74-2.74h-1.6a4.93,4.93,0,0,0,.18-1.27,4.64,4.64,0,0,0-9.28,0,4.53,4.53,0,0,0,.18,1.27H22.11a2.74,2.74,0,0,0-2.74,2.74v11.5A2.74,2.74,0,0,0,22.11,32.68Zm-.74-14.24a.74.74,0,0,1,.74-.74h3.22a1,1,0,0,0,.78-1.62,2.68,2.68,0,0,1-.57-1.65,2.64,2.64,0,1,1,4.7,1.65,1,1,0,0,0-.12,1.05,1,1,0,0,0,.9.57h3.22a.74.74,0,0,1,.74.74v1.32a4.51,4.51,0,0,0-1.67-.32,4.63,4.63,0,0,0,0,9.25A4.51,4.51,0,0,0,35,28.37v1.57a.74.74,0,0,1-.74.74H22.11a.74.74,0,0,1-.74-.74Z"/><path class="cls-1" d="M55,48.56l-4.54-5.28V13.07a4.24,4.24,0,0,0-4.23-4.23H39.55a16.83,16.83,0,0,0-23.62,0H8.72A4.23,4.23,0,0,0,4.5,13.07V50.6a4.22,4.22,0,0,0,4.22,4.23H46.19l.2.3a1.91,1.91,0,0,0,1.3.84L48,56a2,2,0,0,0,1.19-.4l5.53-4.21A1.92,1.92,0,0,0,55.49,50,2,2,0,0,0,55,48.56ZM43.71,35.41a3.19,3.19,0,0,0,.88-1.82,3.56,3.56,0,0,0,0-.8l3.91,0V41Zm-9.13,1.33,1.86-1.43A17.41,17.41,0,0,0,39.5,33l1-.81a1.32,1.32,0,0,1,.78-.27h.17a1.28,1.28,0,0,1,.85.5,1.22,1.22,0,0,1,.25.94,1.21,1.21,0,0,1-.49.85l-6,4.6a1.29,1.29,0,0,1-1.8-.24,1.25,1.25,0,0,1-.25-.95A1.23,1.23,0,0,1,34.58,36.74ZM48.49,13.07V30.83l-4.92,0A3.22,3.22,0,0,0,41.94,30a16.73,16.73,0,0,0-.66-19.11h5A2.23,2.23,0,0,1,48.49,13.07ZM27.74,6A14.87,14.87,0,0,1,38.25,31.4l-3,2.28A14.87,14.87,0,1,1,27.74,6Zm-1,31.7v.18a3.37,3.37,0,0,0-.32-.19Zm-18-26.86H14.2a16.74,16.74,0,0,0,0,20H6.5V13.07A2.23,2.23,0,0,1,8.72,10.84ZM6.5,50.6V32.84h9.35A16.94,16.94,0,0,0,22.66,37a6.21,6.21,0,0,0-3.93,2.57,5.59,5.59,0,0,0-.91,4.62,6.11,6.11,0,0,0,7.08,4.22,5.77,5.77,0,0,0,1.84-.74v5.19h-18A2.23,2.23,0,0,1,6.5,50.6Zm22.24,2.23V45.36a1,1,0,0,0-1.81-.6,4.18,4.18,0,0,1-2.44,1.66,4.11,4.11,0,0,1-4.73-2.75,3.67,3.67,0,0,1,.61-3,4.12,4.12,0,0,1,2.85-1.78c2.15-.24,3.7,1.8,3.72,1.82a1,1,0,0,0,1.8-.6V37.7a16.53,16.53,0,0,0,3.4-.55c0,.06,0,.12,0,.18A3.28,3.28,0,0,0,35.36,41a3.25,3.25,0,0,0,1.39-.32l8.1,12.11Zm20.08.54-.77.65L38.38,39.64l3.83-2.91L53.52,49.8Z"/></svg>