<svg id="圖層_1" data-name="圖層 1" xmlns="http://www.w3.org/2000/svg" viewBox="0 0 60 60"><defs><style>.cls-1{fill:#4c417a;}</style></defs><path class="cls-1" d="M54,49.56H52.91V39.19s0-.06,0-.1,0-.07,0-.11V33.75a5.83,5.83,0,0,0-5.83-5.83H33.57V19.76a1,1,0,0,0-1-1H31V15.84a2.53,2.53,0,0,0,.89-.62A7.89,7.89,0,0,0,33.65,10,8.23,8.23,0,0,0,31,4.28a1,1,0,0,0-1.38,0A8.27,8.27,0,0,0,27,10a7.89,7.89,0,0,0,1.76,5.26,1.84,1.84,0,0,0,.27.23v3.31H27.43a1,1,0,0,0-1,1v8.16H12.92a5.83,5.83,0,0,0-5.83,5.83V49.56H6A3.22,3.22,0,0,0,6,56H54a3.22,3.22,0,0,0,0-6.44ZM30.31,6.48A5.91,5.91,0,0,1,31.65,10a5.77,5.77,0,0,1-1.3,4c-.43-.15-1.43-2-1.38-4A6,6,0,0,1,30.31,6.48ZM28.43,20.76h3.14V27.6H28.43ZM12.92,29.92H47.08a3.84,3.84,0,0,1,3.83,3.83v4.43a6,6,0,0,0-3.38,2.18C46.67,41.28,46,42,44.63,42h0c-1.38,0-2.05-.76-2.89-1.71a5.66,5.66,0,0,0-4.37-2.37h-.06a5.65,5.65,0,0,0-4.36,2.28c-.86.93-1.55,1.69-2.93,1.65s-2.05-.76-2.89-1.7a5.59,5.59,0,0,0-4.37-2.37,5.5,5.5,0,0,0-4.41,2.28c-.86.92-1.53,1.64-2.89,1.64h0c-1.38,0-2.05-.76-2.9-1.7a6.11,6.11,0,0,0-3.39-2.27v-4A3.84,3.84,0,0,1,12.92,29.92ZM9.09,39.81A4.8,4.8,0,0,1,11,41.34a5.59,5.59,0,0,0,4.37,2.37h.06a5.6,5.6,0,0,0,4.35-2.28c.87-.93,1.57-1.64,2.93-1.64s2.05.76,2.9,1.7A5.57,5.57,0,0,0,30,43.86H30a5.62,5.62,0,0,0,4.36-2.28c.86-.93,1.57-1.68,2.93-1.65s2,.76,2.9,1.71A5.62,5.62,0,0,0,44.57,44h.06A5.65,5.65,0,0,0,49,41.73a4.83,4.83,0,0,1,1.92-1.5v9.33H9.09ZM54,54H6a1.22,1.22,0,0,1,0-2.44H54A1.22,1.22,0,0,1,54,54Z"/></svg>