<svg id="圖層_1" data-name="圖層 1" xmlns="http://www.w3.org/2000/svg" viewBox="0 0 60 60"><defs><style>.cls-1{fill:#4c417a;}</style></defs><path class="cls-1" d="M19.47,39.45A17.23,17.23,0,1,0,2.25,22.22,17.25,17.25,0,0,0,19.47,39.45Zm0-32.55A15.32,15.32,0,1,1,4.15,22.22,15.34,15.34,0,0,1,19.47,6.9Z"/><path class="cls-1" d="M14.89,27.92a5.51,5.51,0,0,0,1.63,1.16,6.93,6.93,0,0,0,2.28.62v3a1.38,1.38,0,0,0,.17.76.62.62,0,0,0,.56.25.54.54,0,0,0,.56-.31,2.52,2.52,0,0,0,.13-1V29.68A6.31,6.31,0,0,0,23,28.84,4.67,4.67,0,0,0,24.73,27a5,5,0,0,0,.6-2.39A4.62,4.62,0,0,0,25,22.77a4.28,4.28,0,0,0-1.07-1.46,4.48,4.48,0,0,0-1.47-.91c-.54-.2-1.28-.43-2.2-.69V15.07A2.51,2.51,0,0,1,22,16.92a1.4,1.4,0,0,0,1.42,1.19,1.4,1.4,0,0,0,1.4-1.38,2.75,2.75,0,0,0-.28-1.1,4.82,4.82,0,0,0-.77-1.17,4.13,4.13,0,0,0-1.49-1.12,7.09,7.09,0,0,0-2.05-.49v-1.2c0-.61-.24-.92-.71-.92s-.71.31-.71.94v1.18a5.45,5.45,0,0,0-3.53,1.43,4.29,4.29,0,0,0-1.22,3.14,4.29,4.29,0,0,0,.62,2.41,4.22,4.22,0,0,0,1.63,1.45,13.38,13.38,0,0,0,2.5.92v5.19a3,3,0,0,1-1.2-.62,2.65,2.65,0,0,1-.67-.88c-.15-.33-.32-.79-.53-1.4a1.12,1.12,0,0,0-.48-.66A1.57,1.57,0,0,0,14,24a1.36,1.36,0,0,0-.42,1,3.84,3.84,0,0,0,.32,1.48A5.07,5.07,0,0,0,14.89,27.92Zm5.33-5.31a5,5,0,0,1,1.76.9,1.88,1.88,0,0,1,.59,1.5A2.31,2.31,0,0,1,22,26.6a3.09,3.09,0,0,1-1.74.9Zm-2.91-4.13a1.71,1.71,0,0,1-.49-1.33,1.75,1.75,0,0,1,.52-1.39A3.91,3.91,0,0,1,18.8,15V19.3A4.61,4.61,0,0,1,17.31,18.48Z"/><path class="cls-1" d="M40.53,20.55a1,1,0,0,0,0,1.91A15.32,15.32,0,1,1,25.91,42.38.95.95,0,1,0,24.1,43a17.22,17.22,0,1,0,16.43-22.4Z"/><path class="cls-1" d="M34.61,36.4a4.25,4.25,0,0,0-1-.1H32.14a.85.85,0,0,0-.56.16.74.74,0,0,0-.17.54v4.36a.74.74,0,0,0,.16.52.53.53,0,0,0,.41.17.51.51,0,0,0,.41-.18.72.72,0,0,0,.17-.52v-1.6h1a2.41,2.41,0,0,0,1.59-.44A1.62,1.62,0,0,0,35.72,38a1.9,1.9,0,0,0-.13-.73,1.55,1.55,0,0,0-.38-.55A1.58,1.58,0,0,0,34.61,36.4Zm-.19,2.13a.85.85,0,0,1-.42.28,2.51,2.51,0,0,1-.67.08h-.77V37.16h.77a1.49,1.49,0,0,1,1,.25.85.85,0,0,1,.22.61A.88.88,0,0,1,34.42,38.53Z"/><path class="cls-1" d="M36.2,39a2.6,2.6,0,0,0,0,1.74,1.85,1.85,0,0,0,.42.68,2.12,2.12,0,0,0,.66.44,2.35,2.35,0,0,0,.86.15A2.41,2.41,0,0,0,39,41.9a1.78,1.78,0,0,0,.66-.44,1.92,1.92,0,0,0,.43-.68,2.69,2.69,0,0,0,.14-.87A2.48,2.48,0,0,0,40.1,39a2,2,0,0,0-.42-.67,1.91,1.91,0,0,0-.67-.44,2.21,2.21,0,0,0-.87-.16,2.39,2.39,0,0,0-.86.15,1.91,1.91,0,0,0-.66.44A2,2,0,0,0,36.2,39Zm1,.14a1,1,0,0,1,.36-.47.93.93,0,0,1,.54-.16.92.92,0,0,1,.76.36,1.87,1.87,0,0,1,0,2,.92.92,0,0,1-.76.36,1,1,0,0,1-.55-.16,1.13,1.13,0,0,1-.36-.48,1.94,1.94,0,0,1-.12-.72A1.83,1.83,0,0,1,37.24,39.18Z"/><path class="cls-1" d="M41.07,41.41a.69.69,0,0,0,.15.48.46.46,0,0,0,.37.16.48.48,0,0,0,.38-.16.69.69,0,0,0,.15-.48v-3a.62.62,0,0,0-.15-.44.48.48,0,0,0-.38-.16.46.46,0,0,0-.37.16.66.66,0,0,0-.15.47Z"/><path class="cls-1" d="M41.6,37.28a.52.52,0,0,0,.37-.13.5.5,0,0,0,.15-.38.5.5,0,0,0-.15-.39.62.62,0,0,0-.37-.13.53.53,0,0,0-.37.15.49.49,0,0,0-.16.37.46.46,0,0,0,.16.38A.54.54,0,0,0,41.6,37.28Z"/><path class="cls-1" d="M44.1,38a.41.41,0,0,0-.18-.19.43.43,0,0,0-.25-.07.46.46,0,0,0-.36.15.71.71,0,0,0-.13.45v3a.69.69,0,0,0,.15.48.47.47,0,0,0,.37.16.5.5,0,0,0,.39-.16.71.71,0,0,0,.14-.48V40.09a3.34,3.34,0,0,1,.08-.88,1,1,0,0,1,.34-.46.86.86,0,0,1,.51-.16.6.6,0,0,1,.58.27,1.71,1.71,0,0,1,.14.8v1.75a.69.69,0,0,0,.15.48.49.49,0,0,0,.38.16.48.48,0,0,0,.38-.16.74.74,0,0,0,.14-.48v-2a4.45,4.45,0,0,0,0-.57,1.1,1.1,0,0,0-.13-.41,1.12,1.12,0,0,0-.49-.52,1.54,1.54,0,0,0-.75-.18,1.66,1.66,0,0,0-.75.17,1.92,1.92,0,0,0-.61.54v-.13A.66.66,0,0,0,44.1,38Z"/><path class="cls-1" d="M49.18,36.74a.48.48,0,0,0-.14-.25.53.53,0,0,0-.36-.15.46.46,0,0,0-.26.07.42.42,0,0,0-.18.17.66.66,0,0,0-.07.25c0,.1,0,.23,0,.4v.63H48a.53.53,0,0,0-.36.11.32.32,0,0,0-.13.27.38.38,0,0,0,.12.28.5.5,0,0,0,.35.1h.14v2a3.39,3.39,0,0,0,.07.79.83.83,0,0,0,.34.46,1.39,1.39,0,0,0,.75.16,1.85,1.85,0,0,0,.79-.13.42.42,0,0,0,.28-.39.35.35,0,0,0-.1-.26.37.37,0,0,0-.23-.1,1,1,0,0,0-.25,0l-.25,0a.33.33,0,0,1-.24-.08.4.4,0,0,1-.09-.22,2,2,0,0,1,0-.38V38.62h.19a1,1,0,0,0,.48-.08.3.3,0,0,0,.17-.3.34.34,0,0,0-.12-.27.48.48,0,0,0-.34-.11h-.38v-.71A2.07,2.07,0,0,0,49.18,36.74Z"/><path class="cls-1" d="M19,47.41a.48.48,0,0,0-.71.4l0,1.24a11.22,11.22,0,0,1-8.45-3.21A11,11,0,0,1,6.94,39.2a1,1,0,0,0-1-.88,1,1,0,0,0-.88,1,12.86,12.86,0,0,0,3.41,7.8A13.1,13.1,0,0,0,18.07,51h.15l0,1a.48.48,0,0,0,.68.44L23,50.47a.48.48,0,0,0,0-.85Z"/></svg>