<svg id="圖層_1" data-name="圖層 1" xmlns="http://www.w3.org/2000/svg" viewBox="0 0 60 60"><defs><style>.cls-1{fill:#4c417a;}</style></defs><path class="cls-1" d="M53.4,10c-.92-2.59-4.12-6.16-8.31-6a8.43,8.43,0,0,0-5.51,2.54A8.48,8.48,0,0,0,34.06,4c-4.22-.14-7.39,3.45-8.31,6-2,5.64,3.46,13.57,13.33,19.27a1,1,0,0,0,.5.14,1,1,0,0,0,.5-.14c.53-.3,1-.62,1.54-.93v24.1A1.52,1.52,0,0,1,40.1,54H9.7a1.52,1.52,0,0,1-1.52-1.52V12.39A1.53,1.53,0,0,1,9.7,10.87h12a1,1,0,0,0,0-2H9.7a3.53,3.53,0,0,0-3.52,3.52V52.48A3.53,3.53,0,0,0,9.7,56H40.1a3.53,3.53,0,0,0,3.52-3.52V27C51.21,21.63,55.17,15,53.4,10ZM39.58,27.29C32.35,23,25.81,15.8,27.63,10.71,28.32,8.79,30.75,6,33.84,6H34a7,7,0,0,1,4.81,2.64,1,1,0,0,0,1.53,0A7,7,0,0,1,45.16,6c3.15-.1,5.66,2.75,6.36,4.71C53.34,15.8,46.8,23,39.58,27.29Z"/><path class="cls-1" d="M13.52,23.17h6.77a1,1,0,0,0,0-2H13.52a1,1,0,1,0,0,2Z"/><path class="cls-1" d="M29.23,27.13H13.52a1,1,0,0,0,0,2H29.23a1,1,0,0,0,0-2Z"/><path class="cls-1" d="M35.54,33.12h-22a1,1,0,0,0,0,2h22a1,1,0,0,0,0-2Z"/><path class="cls-1" d="M36.54,40.1a1,1,0,0,0-1-1h-22a1,1,0,0,0,0,2h22A1,1,0,0,0,36.54,40.1Z"/><path class="cls-1" d="M13.52,45.08a1,1,0,1,0,0,2h7.85a1,1,0,1,0,0-2Z"/></svg>