<svg id="圖層_1" data-name="圖層 1" xmlns="http://www.w3.org/2000/svg" viewBox="0 0 40 40"><defs><style>.cls-1{fill:#4c417a;}</style></defs><path class="cls-1" d="M38.83,17.19a6.67,6.67,0,0,1-.93-2.59c-.07-.73-.1-1.47-.14-2.2,0-.34,0-.68,0-1a3,3,0,0,0-1.3-2.26c-.62-.44-1.26-.84-1.9-1.23A7.47,7.47,0,0,1,32,5.24a19,19,0,0,0-1-1.61,3,3,0,0,0-2.47-1.31L25.8,2.18a6.39,6.39,0,0,1-2.88-1L21.65.53a3.3,3.3,0,0,0-3.43,0l-1.66.92a6.16,6.16,0,0,1-2.72.72l-2.42.12A3,3,0,0,0,9.08,3.54c-.28.35-.5.74-.75,1.12-.4.6-.78,1.21-1.21,1.78A7.32,7.32,0,0,1,4.94,8.21l-1.09.67A3.33,3.33,0,0,0,2.2,11.82c0,.9-.09,1.81-.15,2.71a5.56,5.56,0,0,1-.73,2.27L.57,18.14A4.54,4.54,0,0,0,0,19.61v.94a5.89,5.89,0,0,0,.84,2c.24.44.45.9.69,1.34a5.55,5.55,0,0,1,.6,2.5c0,.79.07,1.58.11,2.36A2.91,2.91,0,0,0,3.48,31c.5.37,1,.68,1.56,1A7.7,7.7,0,0,1,7.2,33.8c.4.52.73,1.09,1.09,1.63.2.32.39.66.59,1a3,3,0,0,0,2.49,1.43c.53,0,1.05.08,1.57.07a7.94,7.94,0,0,1,4.35,1.18c.32.2.66.35,1,.55a3.34,3.34,0,0,0,2.21.39,3.17,3.17,0,0,0,1.19-.37c.72-.39,1.46-.76,2.19-1.14A5.11,5.11,0,0,1,26.09,38c.85,0,1.71-.07,2.56-.12a2.89,2.89,0,0,0,2.15-1.14c.34-.42.61-.88.91-1.33s.44-.69.65-1a6.5,6.5,0,0,1,2.32-2.19L36,31.39a3.43,3.43,0,0,0,1.79-3.13c0-.8.07-1.59.12-2.39a5.79,5.79,0,0,1,.77-2.53c.37-.68.74-1.36,1.08-2.06a6.58,6.58,0,0,0,.28-.89v-.61A8.78,8.78,0,0,0,38.83,17.19Zm-19.31,18A15.13,15.13,0,0,1,20,5C28.81,5,35.3,12.53,35,20.1A15.08,15.08,0,0,1,19.52,35.21Z"/><path class="cls-1" d="M17.86,6.91a12.85,12.85,0,0,0-8.71,5.46,12.53,12.53,0,0,0-2.39,6.34A13.24,13.24,0,0,0,13.2,31.53a12.47,12.47,0,0,0,4.59,1.72,19.91,19.91,0,0,0,4,.06,9,9,0,0,0,2.7-.68,13.24,13.24,0,0,0,8.62-10.1,15,15,0,0,0,.19-2.43,10.31,10.31,0,0,0-.45-3.6A13.28,13.28,0,0,0,17.86,6.91ZM20,27.22c-4.6-2.76-8.76-7.32-7.6-10.57a4.66,4.66,0,0,1,4-3h.1a4.43,4.43,0,0,1,3.06,1.68.66.66,0,0,0,1,0,4.43,4.43,0,0,1,3.06-1.68,4.62,4.62,0,0,1,4.05,3C28.76,19.9,24.6,24.46,20,27.22Z"/></svg>