<svg id="圖層_1" data-name="圖層 1" xmlns="http://www.w3.org/2000/svg" viewBox="0 0 60 60"><defs><style>.cls-1{fill:#4c417a;}</style></defs><path class="cls-1" d="M12.31,23.82c0,.69,0,2.76,16.07,2.76s16.06-2.07,16.06-2.76,0-2.19-10.85-2.65a1,1,0,0,0-.08,2,61.14,61.14,0,0,1,7.21.65,81.62,81.62,0,0,1-12.34.76A81.78,81.78,0,0,1,16,23.82a61.36,61.36,0,0,1,7.06-.65,1,1,0,0,0,1-1,1,1,0,0,0-1-1C12.31,21.65,12.31,23,12.31,23.82Z"/><path class="cls-1" d="M49.07,25.27c-.34,0-.67,0-1,.05.15-1.14.24-2.29.28-3.43a3.35,3.35,0,0,0-3.23-3.47c-2.49-.53-5-1-7.58-1.25a1,1,0,0,0-.23,2c2.5.29,5,.71,7.49,1.24l.21,0a1.37,1.37,0,0,1,1.35,1.39,39.59,39.59,0,0,1-.46,4.6L45.64,28l1.51-.43a7.34,7.34,0,0,1,1.92-.26,7.09,7.09,0,1,1-5.72,11.26l-.92-1.26-.76,1.36a36.76,36.76,0,0,1-5.79,7.72,1.34,1.34,0,0,1-1,.39H21a1.34,1.34,0,0,1-1-.39,36.55,36.55,0,0,1-6.1-8.3A37,37,0,0,1,9.61,21.81a1.34,1.34,0,0,1,.37-1,1.66,1.66,0,0,1,1-.41l.13,0a80.59,80.59,0,0,1,8.16-1.32,1,1,0,0,0-.21-2c-2.78.31-5.57.76-8.31,1.34a3.6,3.6,0,0,0-2.26,1,3.32,3.32,0,0,0-.93,2.45,38.57,38.57,0,0,0,11,25.85,3.33,3.33,0,0,0,2.39,1h13.9a3.33,3.33,0,0,0,2.38-1,38.58,38.58,0,0,0,5.39-6.91,9.08,9.08,0,1,0,6.37-15.56Z"/><path class="cls-1" d="M49.07,37.4a3,3,0,0,1-2.68-1.6,1,1,0,1,0-1.75,1,5,5,0,1,0,4.43-7.45,5,5,0,0,0-2.15.48,1,1,0,1,0,.85,1.81,3,3,0,1,1,1.3,5.8Z"/><path class="cls-1" d="M27.17,12.58A3.83,3.83,0,0,1,26.44,15a1,1,0,0,0,.28,1.38.94.94,0,0,0,.55.17,1,1,0,0,0,.83-.45,5.62,5.62,0,0,0,1.06-3.69,5.5,5.5,0,0,0-1.27-2.9,2.64,2.64,0,0,1-.7-1.43c0-1,1.17-2.05,2.18-2.75a1,1,0,1,0-1.15-1.64c-2.07,1.45-3.06,2.9-3,4.43a4.39,4.39,0,0,0,1.09,2.56A3.75,3.75,0,0,1,27.17,12.58Z"/><path class="cls-1" d="M29.62,10.26a5.31,5.31,0,0,1,.73,3.84,4.11,4.11,0,0,1-.75,1.35,9.78,9.78,0,0,0-1.09,1.84,9.45,9.45,0,0,0-.71,4.62,1,1,0,0,0,1,.91h.08a1,1,0,0,0,.91-1.08,7.39,7.39,0,0,1,.55-3.64,8,8,0,0,1,.88-1.48,5.8,5.8,0,0,0,1.05-2,7.15,7.15,0,0,0-.88-5.32,1,1,0,1,0-1.77.93Z"/><path class="cls-1" d="M43.63,43.53a1,1,0,0,0-.38,2c7,1.33,8.86,3.11,8.86,3.86,0,2.09-9.4,5.14-24.13,5.14s-24.13-3-24.13-5.14c0-.93,2.56-2.76,9.63-4a1,1,0,0,0,.82-1.15,1,1,0,0,0-1.16-.82c-5.15.91-11.29,2.68-11.29,6C1.85,54.05,15,56.5,28,56.5s26.13-2.45,26.13-7.14C54.11,46.2,48.41,44.45,43.63,43.53Z"/><path class="cls-1" d="M10.15,47a1,1,0,0,0-1,1c0,4.16,16.78,4.28,18.69,4.28S46.53,52.14,46.53,48a1,1,0,0,0-2-.11c-.67.83-6.27,2.39-16.7,2.39s-16-1.56-16.69-2.39A1,1,0,0,0,10.15,47Z"/><path class="cls-1" d="M31.12,29.31a4.59,4.59,0,0,0-2.74,1.1,4.62,4.62,0,0,0-2.75-1.1A5.08,5.08,0,0,0,21,32.66c-1.09,3.05,1.74,7.26,6.88,10.24a1,1,0,0,0,1,0c5.14-3,8-7.19,6.88-10.24A5.07,5.07,0,0,0,31.12,29.31ZM28.38,40.87c-4.22-2.59-6.12-5.83-5.51-7.54a3.18,3.18,0,0,1,2.64-2h.06a3,3,0,0,1,2,1.14,1,1,0,0,0,.76.36h0a1,1,0,0,0,.76-.36,3,3,0,0,1,2-1.14,3.18,3.18,0,0,1,2.7,2C34.49,35,32.59,38.28,28.38,40.87Z"/></svg>