<svg id="圖層_1" data-name="圖層 1" xmlns="http://www.w3.org/2000/svg" viewBox="0 0 60 60"><defs><style>.cls-1{fill:#4c417a;}</style></defs><path class="cls-1" d="M54.62,30a1,1,0,0,0-.32-.73l-7-6.43.39-9.5a1,1,0,0,0-.29-.75,1,1,0,0,0-.75-.29l-9.49.4-6.43-7a1,1,0,0,0-1.48,0l-6.43,7-9.49-.4a1,1,0,0,0-.75.29,1,1,0,0,0-.29.75l.39,9.5-7,6.43a1,1,0,0,0-.32.73,1,1,0,0,0,.32.74l7,6.43-.39,9.49a1,1,0,0,0,1,1.05l9.49-.4,6.43,7a1,1,0,0,0,1.48,0l6.43-7,9.49.4a1,1,0,0,0,.75-.3,1,1,0,0,0,.29-.74l-.39-9.5,7-6.43A1,1,0,0,0,54.62,30Zm-9,6a1,1,0,0,0-.32.78l.37,8.87-8.87-.37a1.06,1.06,0,0,0-.78.32l-6,6.54L24,45.6a1,1,0,0,0-.74-.32h0l-8.87.37.37-8.87a1,1,0,0,0-.32-.78L7.85,30l6.54-6a1,1,0,0,0,.32-.77l-.37-8.88,8.87.37a1,1,0,0,0,.78-.32l6-6.53,6,6.53a1,1,0,0,0,.78.32l8.87-.37-.37,8.88a1,1,0,0,0,.32.77l6.54,6Z"/><path class="cls-1" d="M27.26,27.41a4.79,4.79,0,1,0-3.38,1.4A4.79,4.79,0,0,0,27.26,27.41Zm-5.35-5.35a2.79,2.79,0,1,1,0,3.94A2.8,2.8,0,0,1,21.91,22.06Z"/><path class="cls-1" d="M32.74,32.89a4.79,4.79,0,1,0,6.77,0A4.79,4.79,0,0,0,32.74,32.89Zm5.35,5.35a2.78,2.78,0,1,1,0-3.94A2.78,2.78,0,0,1,38.09,38.24Z"/><path class="cls-1" d="M39.31,20.84a1,1,0,0,0-1.41,0L20.81,37.75a1,1,0,0,0,.7,1.71,1,1,0,0,0,.7-.29l17.1-16.91A1,1,0,0,0,39.31,20.84Z"/></svg>